<svg width="18" height="12" viewBox="0 0 18 12" fill="none" xmlns="http://www.w3.org/2000/svg">
<path d="M17 6H8" stroke="#222628" stroke-width="1.4" stroke-linecap="round" stroke-linejoin="round"/>
<path d="M3.3 4.4C2.70369 4.84723 2.30687 5.14629 2.03924 5.40113C1.77832 5.64959 1.72792 5.77678 1.71372 5.85248C1.69543 5.94998 1.69543 6.05002 1.71372 6.14752C1.72792 6.22322 1.77832 6.35042 2.03924 6.59887C2.30687 6.85371 2.70369 7.15277 3.3 7.6L4.1 8.2C4.94476 8.83357 5.52742 9.26904 5.98359 9.53283C6.4486 9.80172 6.62232 9.79383 6.69188 9.77665C6.807 9.7482 6.91436 9.69453 7.00619 9.6195C7.06168 9.57416 7.17222 9.43991 7.23611 8.90657C7.29878 8.38336 7.3 7.65596 7.3 6.6L7.3 5.4C7.3 4.34405 7.29878 3.61664 7.23611 3.09343C7.17222 2.56009 7.06168 2.42584 7.00619 2.3805C6.91436 2.30547 6.807 2.2518 6.69188 2.22335C6.62232 2.20617 6.4486 2.19828 5.98359 2.46717C5.52742 2.73096 4.94476 3.16643 4.1 3.8L3.3 4.4Z" stroke="#222628" stroke-width="1.4"/>
</svg>
