<svg width="15" height="20" viewBox="0 0 15 20" fill="none" xmlns="http://www.w3.org/2000/svg">
<path d="M1 7.33333C1 6.0941 1 5.47448 1.10926 4.96044C1.51984 3.02884 3.02884 1.51984 4.96044 1.10926C5.47448 1 6.0941 1 7.33333 1V1C8.57257 1 9.19219 1 9.70622 1.10926C11.6378 1.51984 13.1468 3.02884 13.5574 4.96044C13.6667 5.47448 13.6667 6.0941 13.6667 7.33333V10.8828C13.6667 13.423 13.6667 14.693 13.2648 15.1886C12.801 15.7607 12.0354 15.9925 11.3321 15.7738C10.7229 15.5843 10.0184 14.5276 8.60936 12.414V12.414C8.21413 11.8212 8.01651 11.5248 7.77583 11.406C7.49689 11.2684 7.16978 11.2684 6.89083 11.406C6.65016 11.5248 6.45254 11.8212 6.05731 12.414V12.414C4.64829 14.5276 3.94378 15.5843 3.33453 15.7738C2.63125 15.9925 1.86567 15.7607 1.40183 15.1886C1 14.693 1 13.423 1 10.8828V7.33333Z" stroke="black" stroke-width="1.4" stroke-linejoin="round"/>
</svg>
