<svg width="85" height="79" viewBox="0 0 85 79" fill="none" xmlns="http://www.w3.org/2000/svg">
<path fill-rule="evenodd" clip-rule="evenodd" d="M40.5439 2.21669e-05C40.6159 3.36097e-05 40.689 4.53125e-05 40.763 4.53125e-05H43.8817C43.9557 4.53125e-05 44.0287 3.36097e-05 44.1008 2.21669e-05C45.8624 -0.00025766 47.0581 -0.000447503 48.2269 0.171028C50.6887 0.532197 53.0337 1.45751 55.0787 2.87471C56.0497 3.54757 56.9232 4.36427 58.2099 5.56741L59.6878 6.9489C60.5181 7.725 61.6122 8.15673 62.7488 8.15673C74.8415 8.15673 84.6446 17.9599 84.6446 30.0526V46.8158C84.6447 51.7945 84.6447 55.7259 84.3755 58.8871C84.1006 62.1162 83.5283 64.8214 82.2186 67.2688C80.3081 70.8389 77.3835 73.7635 73.8135 75.6739C71.3661 76.9836 68.6608 77.556 65.4318 77.8309C62.2705 78.1 58.3392 78.1 53.3604 78.1H31.2842C26.3055 78.1 22.3741 78.1 19.2129 77.8309C15.9838 77.556 13.2786 76.9836 10.8312 75.6739C7.26111 73.7635 4.33654 70.8389 2.42609 67.2688C1.11639 64.8214 0.544025 62.1162 0.269105 58.8871C-4.21952e-05 55.7259 -2.3476e-05 51.7945 4.49766e-07 46.8158L9.69891e-07 30.0526C9.69891e-07 17.9598 9.80313 8.15673 21.8959 8.15673C23.0324 8.15673 24.1265 7.725 24.9568 6.9489L26.2747 5.71702C26.3288 5.66648 26.3821 5.6166 26.4348 5.56737C27.7215 4.36425 28.5949 3.54756 29.5659 2.87471C31.611 1.45751 33.9559 0.532197 36.4177 0.171028C37.5865 -0.000447503 38.7823 -0.00025766 40.5439 2.21669e-05ZM40.763 6.10842C38.7031 6.10842 37.9777 6.11593 37.3044 6.21471C35.7741 6.43922 34.3164 7.01441 33.0452 7.89537C32.4858 8.28297 31.9507 8.77288 30.4459 10.1795L29.128 11.4114C27.1663 13.2451 24.5812 14.2651 21.8959 14.2651C13.1767 14.2651 6.10838 21.3334 6.10838 30.0526V46.6747C6.10838 51.8256 6.11096 55.4972 6.35546 58.3689C6.59673 61.2027 7.05675 62.9758 7.8118 64.3868C9.15318 66.8934 11.2066 68.9468 13.7132 70.2882C15.1242 71.0433 16.8973 71.5033 19.731 71.7445C22.6028 71.989 26.2744 71.9916 31.4253 71.9916H53.2194C58.3702 71.9916 62.0418 71.989 64.9136 71.7445C67.7474 71.5033 69.5205 71.0433 70.9314 70.2882C73.438 68.9468 75.4915 66.8934 76.8328 64.3868C77.5879 62.9758 78.0479 61.2027 78.2892 58.369C78.5337 55.4972 78.5363 51.8256 78.5363 46.6748V30.0526C78.5363 21.3334 71.4679 14.2651 62.7488 14.2651C60.0634 14.2651 57.4784 13.2451 55.5166 11.4114L54.1987 10.1795C52.6939 8.77288 52.1588 8.28297 51.5995 7.89537C50.3282 7.01441 48.8706 6.43922 47.3403 6.21471C46.667 6.11593 45.9415 6.10842 43.8817 6.10842H40.763Z" fill="#0846A0" fill-opacity="0.5"/>
<path fill-rule="evenodd" clip-rule="evenodd" d="M42.3223 36.6503C36.7801 36.6503 32.2871 41.1432 32.2871 46.6855C32.2871 52.2278 36.7801 56.7207 42.3223 56.7207C47.8646 56.7207 52.3575 52.2278 52.3575 46.6855C52.3575 41.1432 47.8646 36.6503 42.3223 36.6503ZM26.1788 46.6855C26.1788 37.7696 33.4065 30.5419 42.3223 30.5419C51.2382 30.5419 58.4659 37.7696 58.4659 46.6855C58.4659 55.6013 51.2382 62.829 42.3223 62.829C33.4065 62.829 26.1788 55.6013 26.1788 46.6855Z" fill="#0846A0" fill-opacity="0.5"/>
<path fill-rule="evenodd" clip-rule="evenodd" d="M56.7206 24.8698C56.7206 23.1831 58.088 21.8157 59.7748 21.8157H64.138C65.8247 21.8157 67.1921 23.1831 67.1921 24.8698C67.1921 26.5566 65.8247 27.924 64.138 27.924H59.7748C58.088 27.924 56.7206 26.5566 56.7206 24.8698Z" fill="#0846A0" fill-opacity="0.5"/>
</svg>
