<svg width="24" height="25" viewBox="0 0 24 25" fill="none" xmlns="http://www.w3.org/2000/svg">
<path fill-rule="evenodd" clip-rule="evenodd" d="M11.1 21.8001C17.0112 21.8001 20.9999 20.5936 20.9999 17.5775C20.9999 14.5614 19.8999 14.5614 19.0199 13.9582C19.0199 10.3591 17.6999 3.1001 11.1 3.1001C4.49995 3.1001 3.17995 10.3591 3.17995 13.9582C2.29995 14.5614 1.19995 15.3562 1.19995 17.5775C1.19995 21.1969 5.18976 21.8001 11.1 21.8001Z" stroke="white" stroke-width="1.4" stroke-linecap="round" stroke-linejoin="round"/>
<path d="M14.3999 21.8C14.3999 21.8 13.8499 24 11.0999 24C8.34993 24 7.79993 21.8 7.79993 21.8" stroke="white" stroke-width="1.4" stroke-linecap="round" stroke-linejoin="round"/>
<path d="M11.1 2V3.1" stroke="white" stroke-width="1.4" stroke-linecap="round"/>
<circle cx="19.5" cy="4.5" r="4.5" fill="#F7C90D"/>
</svg>
