<svg width="17" height="17" viewBox="0 0 17 17" fill="none" xmlns="http://www.w3.org/2000/svg">
<rect x="0.7" y="0.7" width="15.6" height="15.6" rx="5.3" stroke="black" stroke-width="1.4"/>
<path d="M9.78699 4.4811C10.1983 3.99163 10.8582 3.89729 11.3174 4.20988C11.5307 4.35512 11.7252 4.49777 11.8777 4.62595C12.0234 4.74838 12.1866 4.90442 12.3545 5.07689C12.7354 5.46825 12.7564 6.12747 12.3464 6.61545L7.71754 12.1245C7.34453 12.5684 6.83148 12.8466 6.28523 12.8928C5.88806 12.9265 5.46827 12.9517 5.13115 12.9493C5.02315 12.9485 4.93148 12.9449 4.85669 12.9391C4.83813 12.8665 4.81878 12.7768 4.7994 12.6705C4.73892 12.3389 4.69143 11.921 4.65609 11.524C4.60748 10.9779 4.79308 10.4246 5.1661 9.98068L9.78699 4.4811Z" stroke="black" stroke-width="1.4"/>
<path d="M9.58195 5.09998C9.58195 5.09998 10.0866 5.9373 10.5604 6.24921C11.0341 6.56112 11.628 6.89776 11.628 6.89776" stroke="black" stroke-width="1.4" stroke-linecap="round"/>
</svg>
