<svg width="17" height="17" viewBox="0 0 17 17" fill="none" xmlns="http://www.w3.org/2000/svg">
<path d="M16.0294 8.86314C16.0294 13.5588 12.8246 17 8.39453 17C7.01946 17.0063 5.66412 16.6674 4.44868 16.0133C3.23324 15.3592 2.19526 14.4102 1.4268 13.2503C0.658336 12.0905 0.183127 10.7557 0.0433125 9.36438C-0.0965017 7.97301 0.103399 6.56806 0.625289 5.27409C1.14718 3.98012 1.97493 2.83714 3.03514 1.94648C4.09535 1.05582 5.35526 0.445019 6.70315 0.168234C8.05104 -0.108552 9.44525 -0.0427667 10.7622 0.359755C12.0791 0.762277 13.278 1.4891 14.2525 2.47576L12.5406 3.95295C11.8142 3.25872 10.9317 2.75605 9.97023 2.4889C9.00873 2.22174 7.99753 2.19824 7.02504 2.42044C6.05255 2.64264 5.14839 3.10379 4.39162 3.76354C3.63485 4.4233 3.04851 5.26158 2.68388 6.20509C2.31925 7.1486 2.18743 8.1686 2.29994 9.1759C2.41246 10.1832 2.76588 11.1471 3.32931 11.9834C3.89273 12.8197 4.64901 13.5028 5.532 13.9731C6.415 14.4434 7.39782 14.6865 8.39453 14.6811C10.9584 14.6811 12.8732 12.9894 13.4899 10.233H8.24849V7.98839H16.0132L16.0294 8.86314Z" fill="black"/>
</svg>
