<svg width="63" height="66" viewBox="0 0 63 66" fill="none" xmlns="http://www.w3.org/2000/svg">
<path d="M11.4412 65.874C8.66954 65.9127 5.95637 65.0759 3.68802 63.4827C1.38876 61.8043 0.0919743 59.4131 0.0827772 56.9207L0 23.0479C1.46263 22.5902 3.03014 22.5902 4.49277 23.0479C4.52036 35.1926 4.54795 44.7759 4.57554 56.9207C4.57554 58.3646 5.68839 59.3901 6.34598 59.8729C7.8549 60.9018 9.64741 61.4339 11.4733 61.395L51.6415 61.2755C53.466 61.3055 55.2542 60.7636 56.7551 59.7257C57.4127 59.2383 58.5163 58.2036 58.5117 56.7597L58.4243 18.2792L62.9125 9.79028L62.9999 56.7275C62.9999 59.2245 61.7077 61.6249 59.436 63.3126C57.1641 64.9282 54.4383 65.7816 51.6507 65.7498L11.4871 65.8694L11.4412 65.874Z" fill="#F7C90D"/>
<path d="M63.0001 0C50.4875 8.27736 40.9271 21.0153 34.2225 32.6496C32.8883 27.7434 30.1753 23.3227 26.405 19.9116C20.7626 14.9268 10.4711 10.503 3.87216 14.7751C2.24565 15.8707 0.929419 17.3675 0.0507812 19.1207C4.02391 17.8607 10.7562 19.2908 14.7661 20.7991C25.4623 24.2986 28.9296 35.5421 31.4542 45.3921C33.6385 43.5297 36.9724 42.5548 38.2278 39.8739C40.1615 34.5739 42.6966 29.5131 45.7832 24.7907C49.7864 18.634 54.2816 12.8117 59.2247 7.38064L63.0001 0Z" fill="#F7C90D"/>
</svg>
