<svg width="176" height="133" viewBox="0 0 176 133" fill="none" xmlns="http://www.w3.org/2000/svg">
<circle cx="96.5" cy="68.5" r="64.5" fill="white"/>
<mask id="mask0_67_2333" style="mask-type:alpha" maskUnits="userSpaceOnUse" x="32" y="4" width="129" height="129">
<circle cx="96.5" cy="68.5" r="64.5" fill="#D9D9D9"/>
</mask>
<g mask="url(#mask0_67_2333)">
<path d="M102.866 159.968L99.9575 146.813L96.4078 147.227L95.7418 159.83C90.2969 159.73 84.8519 159.646 79.407 159.579L78.5337 126.595L113.572 124.616L118.598 160.352C113.358 160.201 108.114 160.073 102.866 159.968Z" fill="#111111"/>
<path opacity="0.3" d="M95.0821 134.894C89.6288 134.649 84.1881 134.21 78.7473 134.172L78.5337 126.595L113.572 124.616L114.828 133.588C108.309 134.7 101.692 135.138 95.0821 134.894Z" fill="#251F28"/>
<path d="M95.3708 58.4537L97.1551 66.2881L113.766 69.4734L95.4965 92.8825L73.9282 70.1457L85.105 66.8284L82.7113 50.8768L95.3708 58.4537Z" fill="#965450"/>
<path opacity="0.2" d="M94.0579 65.4021C89.993 65.0503 86.6883 63.5173 84.1502 60.4451L82.7114 50.8641L95.3709 58.4536L97.017 65.6849C96.0243 65.5969 95.038 65.4901 94.0579 65.4021Z" fill="#352C38"/>
<path d="M100.856 34.3032C100.856 34.3032 108.206 58.3908 100.655 62.9645C95.4463 66.1059 85.9344 64.353 83.0004 55.306C79.6894 45.0842 77.5973 34.9314 82.8433 31.9912C88.0893 29.0509 97.5384 25.8028 100.856 34.3032Z" fill="#965450"/>
<path d="M83.0819 46.6924C83.0819 46.6924 79.7081 41.6663 77.5657 45.1029C75.4233 48.5395 81.2913 56.7195 83.6661 53.063C84.3443 52.1059 84.6581 50.9379 84.551 49.7698C84.4438 48.6016 83.9228 47.5102 83.0819 46.6924Z" fill="#965450"/>
<path d="M84.6842 35.2455C85.1222 36.135 85.2706 37.1394 85.1083 38.1176C84.946 39.0957 84.4813 39.9985 83.7795 40.6988L84.4077 49.7333L83.0444 50.016L81.9449 45.8003C79.9094 42.37 77.8298 44.6758 77.8298 44.6758C75.9827 42.5899 71.5095 36.389 76.9188 33.1974C79.6518 35.0005 81.8067 33.6623 84.6842 35.2455Z" fill="#352C38"/>
<path d="M84.1878 35.2331C84.1878 35.2331 92.8075 37.9786 95.2201 37.2121C97.6326 36.4456 95.4965 34.8499 95.4965 34.8499C95.4965 34.8499 100.598 36.9922 102.187 35.8928C103.777 34.7933 100.931 32.7138 100.931 32.7138C100.931 32.7138 107.214 32.2174 105.329 28.9819C103.444 25.7463 98.3048 27.0594 98.3048 27.0594C98.3048 27.0594 103.023 26.1798 101.76 23.8238C100.497 21.4679 93.4232 25.0804 93.4232 25.0804C93.4232 25.0804 97.7017 22.8877 96.2755 21.3108C94.8494 19.7339 90.4013 21.694 88.2086 24.2699C88.2086 24.2699 91.5007 22.1904 90.5144 20.4312C89.528 18.6721 85.2432 21.6375 83.327 25.4573C81.4108 29.2772 85.6328 22.7118 83.6537 22.272C81.6747 21.8323 76.3156 24.7851 76.9376 33.2415C77.5596 41.6979 84.1878 35.2331 84.1878 35.2331Z" fill="#352C38"/>
<path d="M93.8565 40.9125H93.4858H92.6125L91.4879 40.9627L90.9037 41.0067C90.7152 41.0067 90.5141 41.0067 90.3257 41.0821H90.0367C89.9461 41.1097 89.8538 41.1307 89.7602 41.1449C89.5759 41.1772 89.3935 41.2191 89.2136 41.2706C89.0252 41.2706 88.8618 41.3774 88.6859 41.4214C88.5174 41.4684 88.3516 41.525 88.1896 41.591C88.0325 41.6538 87.8629 41.6852 87.7309 41.7481C87.6147 41.8037 87.4951 41.852 87.3728 41.8926C87.1592 41.968 87.021 42.0057 87.021 42.0057C87.038 41.8836 87.0675 41.7636 87.109 41.6476C87.1464 41.512 87.1947 41.3796 87.2535 41.2517C87.3268 41.0824 87.4196 40.9222 87.5299 40.7743C87.6497 40.5906 87.791 40.4218 87.9508 40.2717C88.1287 40.0958 88.327 39.9418 88.5414 39.813C88.7665 39.6659 89.0093 39.5477 89.2639 39.4612L89.6597 39.3293L90.0744 39.2602C91.0659 39.1152 92.0762 39.3387 92.9141 39.8884C93.1841 40.0618 93.4274 40.2734 93.6366 40.5167C93.7246 40.6399 93.7983 40.7727 93.8565 40.9125Z" fill="#352C38"/>
<path d="M101.986 40.0142H101.666L100.918 39.9388C100.623 39.9388 100.29 39.876 99.9759 39.8634H99.4984C99.3351 39.8634 99.178 39.8634 99.0272 39.8634C98.8764 39.8634 98.7194 39.8949 98.5686 39.9074C98.4178 39.92 98.2733 39.9703 98.1162 39.9891C97.9592 40.0079 97.8272 40.0771 97.6765 40.1085C97.5308 40.1411 97.3879 40.1852 97.2492 40.2404C97.111 40.2907 96.9665 40.3158 96.8597 40.3661C96.7529 40.4163 96.6335 40.454 96.5393 40.4854C96.4451 40.5168 96.2314 40.5797 96.2314 40.5797C96.2461 40.4733 96.2692 40.3682 96.3006 40.2655C96.3677 39.9899 96.4872 39.7297 96.6524 39.4991C96.753 39.3364 96.8757 39.1884 97.0168 39.0593C97.1736 38.9072 97.3463 38.7724 97.532 38.6572C97.7276 38.5318 97.9388 38.4326 98.1602 38.3619C98.3983 38.2845 98.6454 38.2381 98.8953 38.2237C99.3752 38.1962 99.8554 38.2734 100.303 38.4499C100.673 38.596 101.014 38.8089 101.308 39.0781C101.51 39.2604 101.684 39.4722 101.823 39.7064C101.891 39.8015 101.945 39.905 101.986 40.0142Z" fill="#352C38"/>
<path d="M95.4399 41.5409C95.9115 42.0661 96.35 42.62 96.753 43.1995C97.1174 43.721 97.5195 44.3429 97.9216 45.0277C98.3374 45.7526 98.7007 46.5063 99.0085 47.2832C99.1647 47.6934 99.2948 48.1131 99.398 48.5397C99.4999 48.9503 99.5359 49.3744 99.5048 49.7963C99.4713 50.1913 99.3714 50.5778 99.2095 50.9397C99.0565 51.2601 98.8575 51.5564 98.619 51.8193C98.2683 52.204 97.8485 52.5195 97.3813 52.7491C97.2078 52.8377 97.027 52.9113 96.841 52.969C97.0159 52.8886 97.184 52.7941 97.3436 52.6863C97.7663 52.4186 98.1402 52.0808 98.4493 51.6873C98.6492 51.4284 98.8082 51.1402 98.9205 50.8329C99.041 50.4914 99.1067 50.1331 99.1153 49.7711C99.0796 49.3933 98.9951 49.0216 98.864 48.6654C98.7344 48.2812 98.5855 47.9037 98.4179 47.5345C98.0849 46.7806 97.708 46.0393 97.3561 45.3419L96.3698 43.4571C95.8043 42.3137 95.4399 41.5409 95.4399 41.5409Z" fill="#76413B"/>
<path d="M78.4078 48.2696C78.2143 47.9162 78.1128 47.5197 78.1128 47.1168C78.1128 46.7138 78.2143 46.3173 78.4078 45.9639C78.5065 45.7581 78.6476 45.5755 78.822 45.4282C78.9963 45.2809 79.1999 45.1723 79.4193 45.1094C79.5499 45.0723 79.6862 45.0595 79.8214 45.0718H79.8968L80.035 45.122C80.106 45.1548 80.1734 45.1948 80.2361 45.2414C80.4117 45.3941 80.5585 45.5771 80.6696 45.7817C80.8627 46.1374 81.0185 46.5122 81.1345 46.9C81.2521 47.2691 81.3486 47.6445 81.4235 48.0246C81.5844 48.7748 81.6977 49.5344 81.7627 50.2989V50.456L81.6622 50.5565L81.3732 50.8329C81.2823 50.9268 81.1963 51.0254 81.1156 51.1282C81.0374 51.2235 80.966 51.3243 80.902 51.4298L80.8392 51.5806C80.8392 51.6308 80.8392 51.6748 80.8392 51.7188C80.839 51.7657 80.8484 51.8122 80.8667 51.8554C80.8851 51.8986 80.9121 51.9376 80.946 51.9701C81.0385 52.0514 81.1449 52.1152 81.2601 52.1586C81.5194 52.253 81.7896 52.3142 82.0643 52.3408C81.7818 52.4037 81.4905 52.4164 81.2036 52.3785C81.0454 52.3585 80.8933 52.3049 80.7575 52.2214C80.6774 52.1725 80.6082 52.1077 80.5541 52.031C80.5001 51.9543 80.4624 51.8672 80.4434 51.7753C80.4339 51.6834 80.4339 51.5908 80.4434 51.4989L80.4999 51.2476C80.5555 51.1021 80.6227 50.9613 80.701 50.8266C80.7889 50.7073 80.8643 50.5628 80.9586 50.456L81.2413 50.1167L81.1533 50.3743C81.0214 49.6455 80.8643 48.9104 80.701 48.1879C80.5616 47.4816 80.3511 46.7912 80.0727 46.1272C80.0157 45.9924 79.9348 45.869 79.834 45.7628C79.7837 45.7063 79.7335 45.7 79.5827 45.7126C79.4342 45.7423 79.2931 45.8015 79.1679 45.8868C79.0427 45.972 78.9359 46.0816 78.8539 46.2089C78.6347 46.4996 78.4813 46.8344 78.4043 47.1902C78.3273 47.546 78.3285 47.9143 78.4078 48.2696Z" fill="#76413B"/>
<path d="M100.692 55.262C100.692 55.262 96.5832 59.6598 91.2681 55.6452L100.692 55.262Z" fill="white"/>
<path d="M99.4542 43.7083C99.5484 44.5816 99.3348 45.323 98.9767 45.3606C98.6186 45.3983 98.2416 44.7324 98.1411 43.8528C98.0406 42.9732 98.2605 42.2382 98.6186 42.2005C98.9767 42.1628 99.3537 42.835 99.4542 43.7083Z" fill="#352C38"/>
<path d="M90.6337 44.7889C90.7342 45.6622 90.5206 46.4035 90.1562 46.4475C89.7918 46.4915 89.4211 45.8193 89.3269 44.9397C89.2327 44.0601 89.44 43.3251 89.7981 43.2811C90.1562 43.2371 90.5332 43.9156 90.6337 44.7889Z" fill="#352C38"/>
<path d="M149.917 43.9533C149.224 45.2215 148.594 46.5236 148.032 47.8548C148.032 47.8548 150.017 41.7983 149.445 41.0004C148.874 40.2026 146.141 46.5543 146.141 46.5543C146.141 46.5543 147.397 40.2717 146.769 39.6434C146.141 39.0151 143.986 46.5543 143.986 46.5543C143.986 46.5543 145.349 40.6235 144.4 40.6235C144.105 40.6235 142.616 45.9197 141.586 49.7019C140.92 47.8171 140.034 45.4611 139.701 45.6056C139.368 45.7501 139.846 49.1553 140.329 51.8317C136.334 58.7803 129.291 71.6911 129.291 71.6911L104.028 68.3613L102.275 82.0449C102.275 82.0449 129.485 86.4867 134.26 82.849C138.262 79.7643 144.375 62.3614 147.014 54.2882C149.295 48.5207 151.701 42.0685 149.917 43.9533Z" fill="#965450"/>
<path opacity="0.2" d="M123.14 70.8933L103.966 68.3802L102.213 82.0638C102.213 82.0638 112.604 83.7601 121.689 84.1936C123.26 79.8335 124.284 75.3665 123.14 70.8933Z" fill="#352C38"/>
<path d="M67.1365 75.5487L52.7744 95.0248C54.8917 98.7442 57.2225 102.363 59.057 106.202C65.9679 101.402 78.1814 83.7727 78.1814 83.7727L67.1365 75.5487Z" fill="#965450"/>
<path opacity="0.2" d="M68.5315 96.5829C73.6581 90.3631 78.213 83.7727 78.213 83.7727L67.1367 75.5487L58.2217 87.6491C61.4195 90.9474 64.6488 94.3338 68.5315 96.5829Z" fill="#352C38"/>
<path d="M51.8888 106.434C52.5171 106.817 55.6584 109.129 59.1829 106.082C60.0751 101.999 55.9348 98.8195 55.6898 94.7735H55.5704C55.5704 94.7735 47.114 82.736 42.3769 76.2837C42.5277 73.5759 42.6408 70.133 42.2701 70.0011C41.8994 69.8692 41.2837 72.3131 40.8439 74.2858C39.3989 70.6419 37.3194 65.553 37.0241 65.5844C36.0817 65.6912 38.1047 71.4273 38.1047 71.4273C38.1047 71.4273 35.1016 64.1645 34.5613 64.8807C34.021 65.597 35.9938 71.6723 35.9938 71.6723C35.9938 71.6723 32.5195 65.6849 32.042 66.5708C31.5645 67.4566 34.2221 73.2178 34.2221 73.2178C33.5121 71.9582 32.7383 70.7357 31.9038 69.555C29.9247 67.9153 33.0409 74.0471 35.9309 79.5193C39.4932 87.2092 47.5287 103.833 51.8888 106.434Z" fill="#965450"/>
<path d="M114.212 86.292C114.212 86.292 116.241 86.5308 119.094 86.7255C121.607 81.0335 122.725 75.8377 120.821 69.8692C112.893 68.2546 105.743 67.2556 102.394 66.7279C102.394 66.7279 95.5841 80.3424 92.914 80.4994C91.4941 80.5811 83.1759 73.5885 79.9844 67.463C79.9844 67.463 78.2692 67.463 71.5279 69.7184C66.7029 71.3394 62.6003 77.201 57.5742 85.8397C61.281 89.3956 66.7531 93.8312 71.7353 95.6845L73.6201 92.7505C73.6201 92.7505 74.9331 123.63 76.9184 128.876C78.9037 134.122 116.97 133.431 116.028 123.85C114.47 99.4855 114.212 86.292 114.212 86.292Z" fill="#2A489B"/>
<path opacity="0.2" d="M115.249 110.43C108.661 109.812 102.181 108.346 95.9679 106.07C90.63 104.119 85.5629 101.495 80.8896 98.2604C78.3034 96.5445 75.9653 94.4813 73.941 92.1285C73.7777 92.4552 73.608 92.7568 73.4321 93.1023L73.6583 92.7505C73.6583 92.7505 74.9714 123.63 76.9567 128.876C78.942 134.122 117.008 133.431 116.066 123.85C115.756 118.911 115.484 114.438 115.249 110.43Z" fill="#352C38"/>
<path d="M41.5602 63.9195C40.7425 61.6884 40.19 59.3688 39.9141 57.0087C39.7235 54.8608 39.3195 52.7372 38.7079 50.6695C38.4944 50.6203 38.2732 50.6145 38.0573 50.6522C37.8415 50.69 37.6355 50.7706 37.4513 50.8894C36.9739 51.2852 36.2828 54.5836 37.2754 56.9521C38.2681 59.3207 38.8963 65.3143 38.8963 65.3143L38.0608 65.4651L35.8116 63.2787L34.8817 63.1782C34.8817 63.1782 30.6535 68.8703 31.2315 71.71L32.3373 74.11L38.5571 72.7906L41.8178 67.4001L41.5602 63.9195Z" fill="#894D4C"/>
<path d="M34.875 63.1782C35.3274 65.1497 35.9583 67.0759 36.7598 68.9331C36.7669 69.28 36.6479 69.6176 36.4249 69.8834C36.2019 70.1491 35.89 70.3249 35.5472 70.3781L35.164 70.0766C35.1655 70.4298 35.0559 70.7746 34.8507 71.0621C34.6455 71.3496 34.3551 71.5653 34.0205 71.6786L32.764 70.7802L33.2101 71.6346C33.1379 71.9323 32.9807 72.2024 32.7576 72.4122C32.5344 72.6219 32.2551 72.7622 31.9535 72.8158C31.9535 72.8158 29.9745 71.7603 29.541 70.0074L31.0049 68.242L30.785 67.13L32.5504 65.3143L32.4436 64.4976C33.1114 63.8346 33.9551 63.3767 34.875 63.1782Z" fill="#965450"/>
<path d="M44.997 68.0222C44.8399 69.0588 42.1384 73.7519 41.9122 74.7069C41.7685 75.4147 41.6866 76.1336 41.6672 76.8555C40.6305 80.7948 36.6411 82.0262 36.6411 82.0262L35.8683 78.7655C35.8683 78.7655 33.4558 77.8796 32.9594 77.2514L32.8966 77.1445C32.6566 76.1461 32.472 75.1352 32.3438 74.1163L35.906 71.886C37.1625 69.4358 40.7939 66.2316 40.7939 66.2316V65.0631C37.6526 64.1521 37.3573 59.7417 37.7531 59.126C38.0828 58.7199 38.5459 58.4439 39.0599 58.3469C39.0599 58.3469 40.7373 61.639 41.7049 63.1469C42.6724 64.6547 45.1477 66.9793 44.997 68.0222Z" fill="#965450"/>
<path d="M151.839 40.0204C150.281 38.387 149.062 38.4247 149.062 38.4247L149.125 37.8843C148.001 36.5147 146.845 36.9671 146.845 36.9671L145.488 39.0027L144.168 40.9817L143.477 40.8058V40.7492C143.559 40.3597 144.137 37.7021 144.734 35.6414C144.859 35.1891 144.991 34.7682 145.111 34.3849C145.649 32.5506 146.029 30.6736 146.248 28.7745C146.15 28.592 145.988 28.4519 145.793 28.3812C145.599 28.3105 145.385 28.3141 145.192 28.3913C143.98 29.5033 142.051 33.0153 141.925 34.6362C141.928 34.655 141.928 34.674 141.925 34.6928C141.928 34.722 141.928 34.7515 141.925 34.7807C141.922 34.7973 141.922 34.8144 141.925 34.831C141.521 37.6641 140.95 40.471 140.216 43.2371C139.908 44.0111 139.416 44.6988 138.784 45.2413C138.533 45.2978 136.535 43.8968 136.221 43.4445C135.972 43.0046 135.762 42.5443 135.592 42.0686C133.494 41.2393 130.453 43.3251 130.24 43.7398C130.026 44.1544 130.497 44.8832 130.497 44.8832C131.388 44.7151 132.293 44.6414 133.199 44.6633C133.726 44.8015 136.284 46.234 136.742 47.101C137.201 47.968 137.835 50.1795 138.357 50.8705C138.958 51.4439 139.65 51.9132 140.405 52.259C140.364 52.9844 140.148 53.6892 139.777 54.3134C141.033 59.1008 143.728 60.0432 143.728 60.0432L146.103 53.7229L147.643 53.3773C151.588 50.236 153.856 42.634 154.013 42.0686C154.125 41.8707 154.211 41.6596 154.271 41.4403C154.239 41.0509 154.087 40.6809 153.836 40.3815C153.585 40.0821 153.248 39.8681 152.87 39.7691C152.662 39.7288 152.452 39.7036 152.241 39.6937L151.839 40.0204Z" fill="#965450"/>
<path d="M145.418 40.5356C145.308 40.8714 145.24 41.2197 145.217 41.5723C145.198 41.9284 145.31 42.2791 145.531 42.5587C145.638 42.6821 145.771 42.7793 145.922 42.8427C146.072 42.9062 146.235 42.9341 146.398 42.9244C146.561 42.9147 146.719 42.8675 146.861 42.7867C147.002 42.7058 147.124 42.5934 147.215 42.4581L147.133 44.3052C147.114 44.4033 147.117 44.5045 147.142 44.6013C147.167 44.6981 147.213 44.788 147.278 44.8644C147.373 44.9195 147.481 44.9485 147.592 44.9485C147.702 44.9485 147.81 44.9195 147.906 44.8644C148.537 44.5663 149.098 44.138 149.552 43.6078C149.41 43.9269 149.319 44.266 149.282 44.6131C149.262 44.787 149.282 44.9632 149.34 45.1284C149.397 45.2937 149.491 45.444 149.615 45.568C149.762 45.6789 149.931 45.7584 150.11 45.8017C150.29 45.8449 150.476 45.8509 150.658 45.8193C151.375 45.7325 152.03 45.3669 152.48 44.8015" stroke="#823937" stroke-miterlimit="10"/>
</g>
<path opacity="0.45" d="M49.0365 80.2292H4.58686C3.63502 80.2294 2.72101 79.8565 2.04095 79.1905C1.36089 78.5246 0.968945 77.6186 0.949218 76.6669L0.113628 40.1837C0.106951 39.6999 0.196691 39.2196 0.377612 38.7709C0.558533 38.3221 0.827011 37.9139 1.16738 37.57C1.50775 37.2261 1.9132 36.9535 2.36007 36.768C2.80694 36.5825 3.28628 36.4878 3.77012 36.4895H50.0354C50.5217 36.4893 51.003 36.5867 51.4511 36.7757C51.8991 36.9648 52.3047 37.2418 52.6438 37.5903C52.9829 37.9388 53.2487 38.3517 53.4255 38.8047C53.6023 39.2577 53.6865 39.7416 53.673 40.2277L52.6741 76.6669C52.6528 77.618 52.2603 78.5231 51.5806 79.1887C50.9009 79.8544 49.9878 80.2278 49.0365 80.2292Z" fill="url(#paint0_linear_67_2333)"/>
<path d="M49.0367 80.3424H4.58707C3.60449 80.3427 2.66061 79.9594 1.9565 79.274C1.25239 78.5887 0.843698 77.6555 0.817496 76.6733L0.000754046 40.2152C-0.00927469 39.7139 0.0808206 39.2156 0.265764 38.7495C0.450708 38.2834 0.726783 37.8589 1.07782 37.5008C1.42887 37.1428 1.84782 36.8584 2.31015 36.6642C2.77248 36.4701 3.2689 36.3701 3.77033 36.3702H50.0356C50.5381 36.3701 51.0356 36.4704 51.4988 36.6654C51.9619 36.8603 52.3815 37.1458 52.7327 37.5052C53.0839 37.8646 53.3597 38.2906 53.5439 38.7582C53.7281 39.2257 53.8169 39.7254 53.8052 40.2278L52.8 76.667C52.7851 77.6524 52.381 78.5919 51.676 79.2805C50.9709 79.969 50.0221 80.3508 49.0367 80.3424ZM3.77033 36.6027C3.30139 36.6001 2.83666 36.6913 2.40346 36.8709C1.97027 37.0505 1.57735 37.3149 1.2478 37.6485C0.918261 37.9822 0.658743 38.3783 0.484506 38.8137C0.310269 39.2491 0.22483 39.7149 0.233211 40.1838L1.06252 76.623C1.08859 77.542 1.47082 78.4149 2.12847 79.0573C2.78613 79.6997 3.66773 80.0614 4.58707 80.0659H49.0367C49.9557 80.0711 50.84 79.7152 51.4993 79.0748C52.1585 78.4344 52.5398 77.5607 52.5612 76.6419L53.5602 40.2026C53.5719 39.7321 53.4894 39.2641 53.3176 38.8259C53.1459 38.3877 52.8882 37.9883 52.5598 37.6512C52.2314 37.314 51.839 37.0459 51.4055 36.8626C50.972 36.6793 50.5062 36.5845 50.0356 36.5838L3.77033 36.6027Z" fill="#463F9D"/>
<path d="M35.4787 43.9469H12.1011V44.9458H35.4787V43.9469Z" fill="white"/>
<path d="M23.7868 46.3784H12.1011V47.3774H23.7868V46.3784Z" fill="white"/>
<path d="M23.7868 48.4141H12.1011V49.413H23.7868V48.4141Z" fill="white"/>
<path d="M34.3984 48.4141H25.1001V49.413H34.3984V48.4141Z" fill="white"/>
<path d="M30.9427 50.4434H12.1011V51.4423H30.9427V50.4434Z" fill="white"/>
<path d="M18.8109 52.479H12.1011V53.4779H18.8109V52.479Z" fill="white"/>
<path d="M31.7843 58.573H20.1865V59.5719H31.7843V58.573Z" fill="white"/>
<path d="M33.1227 54.5081H12.1011V55.507H33.1227V54.5081Z" fill="white"/>
<path d="M28.2726 56.5437H12.1011V57.5426H28.2726V56.5437Z" fill="white"/>
<path d="M19.7093 58.573H12.1011V59.5719H19.7093V58.573Z" fill="white"/>
<path d="M23.7868 60.6086H12.1011V61.6076H23.7868V60.6086Z" fill="white"/>
<path d="M15.456 62.6379H12.1011V63.6369H15.456V62.6379Z" fill="white"/>
<path d="M28.9952 62.6379H16.832V63.6369H28.9952V62.6379Z" fill="white"/>
<path d="M31.7843 64.6106H20.1865V65.6095H31.7843V64.6106Z" fill="white"/>
<path d="M19.7093 64.6106H12.1011V65.6095H19.7093V64.6106Z" fill="white"/>
<path d="M23.7868 66.6461H12.1011V67.6451H23.7868V66.6461Z" fill="white"/>
<path d="M15.456 68.6754H12.1011V69.6744H15.456V68.6754Z" fill="white"/>
<path d="M28.9952 68.6754H16.832V69.6744H28.9952V68.6754Z" fill="white"/>
<path opacity="0.45" d="M171.001 43.8276H126.552C125.6 43.8279 124.687 43.4561 124.006 42.7916C123.325 42.1272 122.931 41.2228 122.908 40.2717L122.079 3.83241C122.068 3.34705 122.154 2.86442 122.332 2.41285C122.51 1.96127 122.777 1.54987 123.117 1.2028C123.456 0.855737 123.861 0.58 124.309 0.39179C124.756 0.203579 125.237 0.10669 125.722 0.106812H172C172.489 0.107364 172.973 0.206235 173.422 0.397542C173.872 0.588849 174.279 0.868682 174.618 1.22039C174.958 1.57209 175.223 1.98848 175.398 2.44477C175.573 2.90106 175.655 3.38792 175.638 3.87639L174.639 40.3156C174.605 41.2579 174.207 42.1503 173.528 42.8052C172.85 43.4601 171.944 43.8266 171.001 43.8276Z" fill="url(#paint1_linear_67_2333)"/>
<path d="M171.001 43.9533H126.552C125.568 43.9536 124.623 43.5694 123.919 42.8827C123.215 42.196 122.807 41.2613 122.782 40.2779L121.953 3.83869C121.944 3.33787 122.034 2.84025 122.22 2.3749C122.405 1.90955 122.681 1.48579 123.032 1.1284C123.383 0.771014 123.802 0.487153 124.264 0.293407C124.726 0.0996609 125.221 -8.4046e-05 125.722 1.39725e-07H172C172.503 -0.000136676 173 0.100203 173.463 0.295118C173.927 0.490034 174.346 0.775591 174.697 1.135C175.048 1.4944 175.324 1.92041 175.508 2.38795C175.693 2.8555 175.781 3.35515 175.77 3.85753L174.771 40.2968C174.741 41.2768 174.331 42.2068 173.628 42.8895C172.924 43.5721 171.982 43.9537 171.001 43.9533ZM125.722 0.207327C125.252 0.205475 124.786 0.2981 124.352 0.479707C123.919 0.661314 123.526 0.928204 123.197 1.26454C122.868 1.60088 122.61 1.99982 122.439 2.43768C122.267 2.87555 122.185 3.34343 122.198 3.81356L123.027 40.2528C123.053 41.1718 123.435 42.0447 124.093 42.6871C124.751 43.3295 125.632 43.6912 126.552 43.6957H171.001C171.921 43.6992 172.805 43.3419 173.464 42.7005C174.123 42.0591 174.504 41.1848 174.526 40.2654L175.525 3.82612C175.538 3.35518 175.457 2.88632 175.286 2.44738C175.115 2.00844 174.857 1.60834 174.528 1.27083C174.2 0.933321 173.806 0.665271 173.372 0.482584C172.938 0.299896 172.471 0.206293 172 0.207327H125.722Z" fill="#463F9D"/>
<path d="M158.618 32.1043V8.72668H157.619V32.1043H158.618Z" fill="white"/>
<path d="M156.18 20.406V8.72034H155.181V20.406H156.18Z" fill="white"/>
<path d="M154.151 20.4124V8.72668H153.152V20.4124H154.151Z" fill="white"/>
<path d="M154.151 31.0236V21.7253H153.152V31.0236H154.151Z" fill="white"/>
<path d="M152.115 27.5683V8.72668H151.116V27.5683H152.115Z" fill="white"/>
<path d="M150.086 15.4302V8.72034H149.087V15.4302H150.086Z" fill="white"/>
<path d="M143.986 28.4038V16.806H142.987V28.4038H143.986Z" fill="white"/>
<path d="M148.051 29.7484V8.72668H147.052V29.7484H148.051Z" fill="white"/>
<path d="M146.022 24.8982V8.72668H145.023V24.8982H146.022Z" fill="white"/>
<path d="M143.992 16.3349V8.72668H142.993V16.3349H143.992Z" fill="white"/>
<path d="M141.957 20.4124V8.72668H140.958V20.4124H141.957Z" fill="white"/>
<path d="M139.921 12.0816V8.72668H138.922V12.0816H139.921Z" fill="white"/>
<path d="M139.921 25.6207V13.4575H138.922V25.6207H139.921Z" fill="white"/>
<path d="M137.955 28.4038V16.806H136.956V28.4038H137.955Z" fill="white"/>
<path d="M137.955 16.3349V8.72668H136.956V16.3349H137.955Z" fill="white"/>
<path d="M135.919 20.4124V8.72668H134.92V20.4124H135.919Z" fill="white"/>
<path d="M133.884 12.0816V8.72668H132.885V12.0816H133.884Z" fill="white"/>
<path d="M133.884 25.6207V13.4575H132.885V25.6207H133.884Z" fill="white"/>
<defs>
<linearGradient id="paint0_linear_67_2333" x1="23.3468" y1="82.6103" x2="29.4723" y2="33.876" gradientUnits="userSpaceOnUse">
<stop stop-color="#477DFA"/>
<stop offset="1" stop-color="#3E3A9B"/>
</linearGradient>
<linearGradient id="paint1_linear_67_2333" x1="145.312" y1="46.215" x2="151.431" y2="-2.51933" gradientUnits="userSpaceOnUse">
<stop stop-color="#477DFA"/>
<stop offset="1" stop-color="#3E3A9B"/>
</linearGradient>
</defs>
</svg>
