<svg width="129" height="129" viewBox="0 0 129 129" fill="none" xmlns="http://www.w3.org/2000/svg">
<circle cx="64.5" cy="64.5" r="64.5" fill="white"/>
<mask id="mask0_65_2318" style="mask-type:alpha" maskUnits="userSpaceOnUse" x="0" y="0" width="129" height="129">
<circle cx="64.5" cy="64.5" r="64.5" fill="#D9D9D9"/>
</mask>
<g mask="url(#mask0_65_2318)">
<path d="M64.861 20.203C64.861 20.203 72.25 14.996 79.8336 26.191C87.4172 37.386 76.5247 39.7069 83.1201 47.4281C89.7155 55.1493 94.8811 64.9979 79.1374 70.6958C65.984 75.4565 58.8345 64.8045 58.8345 64.8045L64.861 20.203Z" fill="#212121"/>
<path d="M64.4043 20.7461C69.8693 16.8334 76.4348 21.0213 79.7961 25.6927C81.6378 28.0433 83.1725 30.8476 83.2099 33.8751C83.2099 38.5539 79.9683 42.0575 83.8387 46.238C86.8332 49.5109 89.9251 52.9922 91.0406 57.3958C92.7699 64.0905 86.7284 68.3751 81.2036 70.4132C86.3691 68.1817 92.2982 63.8748 90.4641 57.5371C89.2738 53.2971 86.2343 49.8903 83.2698 46.6917C80.9191 44.1998 80.7095 41.2095 81.7725 38.1076C83.3521 33.6445 82.1543 29.6351 79.3095 25.9903C76.1503 21.4007 69.8918 17.2053 64.4043 20.7461Z" fill="#212121"/>
<path d="M51.1536 50.4779C51.1536 50.4779 52.1493 60.334 51.0413 61.0704C49.9334 61.8068 44.0267 62.454 44.0267 62.454C44.0267 62.454 47.1634 77.6807 58.9993 77.8889C70.8351 78.0972 75.8285 65.9947 75.8285 65.9947L64.322 62.6102L65.43 50.5523L51.1536 50.4779Z" fill="#965450"/>
<path opacity="0.1" d="M51.5578 58.1991C51.9097 58.3181 52.2541 58.4223 52.6059 58.519C54.9416 59.181 59.1938 60.1554 61.5895 60.5199C62.5552 60.6241 63.5209 60.7059 64.4867 60.7877L65.4299 50.5523L51.1536 50.4779C51.1536 50.4779 51.6177 55.0526 51.5578 58.1991Z" fill="#001627"/>
<path d="M57.4571 21.9139C57.4571 21.9139 63.8654 20.0989 70.3934 24.9637C80.0358 32.1494 79.5941 59.367 65.4599 58.3926C59.4709 57.976 54.7695 53.7435 50.7419 49.1018C49.9259 48.1571 47.0436 49.1018 46.4896 47.934C45.6886 46.2752 44.7903 44.5048 44.7154 42.4071C44.2812 29.9922 57.4571 21.9139 57.4571 21.9139Z" fill="#965450"/>
<path d="M49.5739 46.8329C47.1184 46.6097 45.9955 45.0848 48.7504 43.8574L48.5259 44.1773C48.5805 43.0081 48.4747 41.8369 48.2114 40.6961C48.0318 40.2349 47.9269 40.2423 47.5676 40.3985C47.2576 40.5789 47.0014 40.8379 46.8251 41.149C46.6489 41.46 46.5589 41.812 46.5644 42.1689C46.4441 41.7655 46.4513 41.3352 46.5852 40.936C46.7191 40.5369 46.9732 40.1883 47.3131 39.9373C47.4766 39.7915 47.6885 39.7108 47.9082 39.7108C48.1279 39.7108 48.3399 39.7915 48.5034 39.9373C49.4766 41.2316 49.252 42.9128 49.252 44.4005C46.6842 45.308 47.7173 45.8882 49.5664 46.751L49.5739 46.8329Z" fill="#76413B"/>
<path d="M68.4394 47.7108C69.146 46.7436 69.9137 45.8218 70.7377 44.9511L70.6479 45.3082C70.2436 44.2147 69.8993 43.0766 69.5774 41.998C69.2527 40.8775 69.0026 39.7369 68.8287 38.5837C69.3698 39.6172 69.84 40.6859 70.2361 41.7823C70.6704 42.9427 71.0447 44.118 71.3741 45.3156C70.4479 46.1779 69.465 46.9781 68.4319 47.7108H68.4394Z" fill="#76413B"/>
<path d="M70.9549 50.2621L59.7778 49.5852C61.278 50.9588 63.209 51.7761 65.2452 51.8995C67.2813 52.0228 69.298 51.4445 70.9549 50.2621Z" fill="white"/>
<path d="M58.1982 36.8877C59.0816 33.5701 64.4418 32.8783 65.8192 36.1438C64.5612 35.9502 63.284 35.9102 62.0162 36.0248C60.7298 36.2365 59.4554 36.5145 58.1982 36.8579V36.8877Z" fill="#352C38"/>
<path d="M64.7337 41.5219C63.9851 38.6655 60.8857 38.7994 60.2419 41.6186C60.1404 41.2854 60.114 40.9341 60.1644 40.5896C60.2149 40.245 60.341 39.9158 60.5339 39.6251C60.8406 39.1645 61.3025 38.8277 61.8367 38.6752C62.3709 38.5227 62.9423 38.5645 63.4483 38.793C63.9543 39.0215 64.3617 39.4218 64.5973 39.922C64.8329 40.4222 64.8813 40.9895 64.7337 41.5219Z" fill="#352C38"/>
<path d="M68.9634 36.077C69.1409 35.5422 69.4381 35.0545 69.8329 34.6505C70.2277 34.2465 70.7096 33.9369 71.2423 33.7449C71.775 33.553 72.3446 33.4837 72.9082 33.5423C73.4718 33.601 74.0147 33.786 74.4958 34.0834C75.1197 34.493 75.5762 35.1102 75.7835 35.824C75.3867 35.7869 75.0872 35.6753 74.7653 35.6232C72.8563 35.1174 70.8425 35.6232 68.9634 36.077Z" fill="#352C38"/>
<path d="M75.2669 41.0161C74.6755 38.1299 71.5238 38.1225 70.7752 40.8971C70.6882 40.5606 70.676 40.2093 70.7394 39.8676C70.8027 39.526 70.9401 39.2021 71.142 38.9184C71.4684 38.4665 71.9473 38.146 72.4915 38.0154C73.0357 37.8848 73.609 37.9528 74.107 38.207C74.605 38.4612 74.9945 38.8846 75.2047 39.4002C75.4148 39.9158 75.4316 40.4892 75.252 41.0161H75.2669Z" fill="#352C38"/>
<path d="M26.4712 136.475C27.4594 108.803 44.9399 94.9454 44.9399 94.9454V91.3823L72.6392 93.4056C72.6392 93.4056 83.3147 116.004 86.998 136.929C88.7123 146.658 89.693 154.922 89.1989 165.098C82.3041 165.098 73.328 165.202 64.1124 165.321L58.1233 146.413V165.411C48.4435 165.552 38.9284 165.753 31.6967 166.028C27.1226 156.767 26.1643 144.858 26.4712 136.475Z" fill="#111111"/>
<path opacity="0.2" d="M28.9193 121.055C33.9801 103.663 44.94 94.9454 44.94 94.9454V91.3823L72.6393 93.4056C76.8633 102.672 80.4499 112.213 83.3747 121.962C74.2863 124.662 52.7482 129.2 28.9193 121.055Z" fill="#352C38"/>
<path d="M118.8 42.0501C118.338 43.1546 117.595 44.1208 116.644 44.8545C115.686 45.5739 114.835 46.4227 114.113 47.3761C113.558 48.149 113.131 49.0054 112.848 49.9127C112.848 50.3292 112.901 50.7607 112.923 51.1921C113.522 62.8111 113.851 78.1643 113.799 78.1717C113.799 78.5288 113.724 78.8635 113.687 79.2057C113.797 80.1119 113.662 81.0309 113.297 81.8687C107.915 92.1413 70.0491 80.4479 70.0491 80.4479L73.388 65.4295L102.263 71.7597C102.734 65.5187 103.311 56.2131 103.805 50.5821C103.76 49.7565 103.378 48.5217 103.326 47.696C103.329 47.6713 103.329 47.6463 103.326 47.6216C103.288 46.8777 103.251 46.2008 103.198 45.4942C103.198 45.1818 103.198 44.8693 103.146 44.5569C103.037 43.096 103.037 41.6291 103.146 40.1682C103.326 38.2044 103.895 36.3001 104.134 34.3438C104.41 31.9595 104.178 29.5442 103.453 27.2549C103.263 26.7794 103.15 26.2775 103.116 25.7672C103.104 25.5118 103.161 25.2579 103.281 25.0317C103.4 24.8055 103.579 24.6151 103.797 24.4803C104.546 24.1009 105.422 24.7332 105.953 25.3878C107.519 27.3102 108.363 29.7137 108.341 32.1866L111.471 30.022C112.219 29.5236 113.125 29.0178 113.874 29.4641C114.117 29.6499 114.311 29.8906 114.441 30.1662C114.572 30.4418 114.634 30.7443 114.622 31.0485C114.602 31.6557 114.686 32.2619 114.87 32.8412C115.235 33.4254 115.693 33.9477 116.225 34.3884C116.486 34.6145 116.67 34.915 116.753 35.2491C116.837 35.5832 116.814 35.9346 116.689 36.2555C117.003 36.2329 117.318 36.304 117.591 36.4597C117.865 36.6153 118.086 36.8486 118.226 37.1296C118.366 37.4106 118.418 37.7266 118.376 38.0373C118.334 38.3479 118.2 38.6392 117.991 38.8739C118.446 39.2509 118.769 39.7611 118.914 40.3316C119.06 40.9021 119.019 41.5036 118.8 42.0501Z" fill="#965450"/>
<path opacity="0.1" d="M82.9479 83.7653C75.6937 82.2107 70.0415 80.4626 70.0415 80.4626L73.3879 65.4293L82.3714 67.3708C83.4944 72.7563 84.0633 78.3575 82.9479 83.7653Z" fill="#352C38"/>
<path d="M44.5881 62.6101C39.0258 59.6793 5.00054 81.6304 6.0112 90.7203C6.75983 97.3258 20.5646 109.049 28.4701 114.591C30.4165 113.103 30.4016 111.541 32.2132 109.875C26.9728 103.336 20.6095 91.2782 20.6095 91.2782C20.6095 91.2782 34.242 86.4283 44.0042 80.8643C53.7663 75.3002 44.5881 62.6101 44.5881 62.6101Z" fill="#965450"/>
<path d="M73.7846 94.596C73.7846 94.596 79.025 103.708 83.3296 119.329C83.3296 119.329 58.812 126.396 28.8668 119.887C28.8668 119.887 32.7971 105.754 43.4651 94.0381C54.1331 82.3224 73.7846 94.596 73.7846 94.596Z" fill="#2A489B"/>
<path opacity="0.2" d="M38.4194 100.391C49.297 105.337 63.1241 101.529 74.3536 95.5852C78.1559 103.169 81.1661 111.12 83.3372 119.314C83.3372 119.314 58.8195 126.381 28.8743 119.872C31.053 112.939 34.2708 106.371 38.4194 100.391Z" fill="#352C38"/>
<path d="M43.4426 61.71C44.6884 61.6124 45.94 61.6124 47.1858 61.71C47.1858 61.71 50.9289 73.6117 59.351 73.4257C70.0639 73.1654 69.3901 63.9416 69.3901 63.9416C69.3901 63.9416 71.2692 64.3953 73.3729 65.0276C74.945 68.3303 80.2977 75.2482 80.8592 82.3594C81.226 88.2508 76.2251 94.0007 74.7129 95.3992C72.744 97.2142 68.3795 97.7721 61.0654 97.3555C53.7513 96.939 43.0533 94.7669 43.0533 94.7669L40.5829 87.3284L38.9508 83.2074L38.6589 83.3785C46.6767 75.7763 44.7827 65.4293 43.4426 61.71Z" fill="#2A489B"/>
<path d="M26.1044 112.552C26.1044 112.552 28.5 115.706 30.0946 115.595C31.6892 115.483 34.4367 111.065 34.4367 111.065C34.4367 111.065 43.9593 119.56 35.0506 109.808C35.0506 109.808 49.7162 120.37 35.1629 108.067C35.1629 108.067 48.6981 116.086 35.8067 106.617C35.8067 106.617 50.5247 111.318 35.6944 105.032C35.6944 105.032 34.6837 104.073 31.2026 109.146L29.2337 108.015L26.1044 112.552Z" fill="#965450"/>
<path d="M67.586 24.0637C67.586 24.0637 70.4981 32.1717 61.3649 33.9123C52.2316 35.6529 59.8077 42.6005 50.4798 43.3741C50.4798 43.3741 50.8691 36.9993 47.373 37.5795C43.8769 38.1597 43.8769 49.8754 51.0038 47.9414C51.0038 47.9414 54.747 59.2108 51.6476 61.7176C48.5483 64.2244 41.1668 60.9737 34.5489 65.1914C34.5489 65.1914 28.9117 59.2406 32.2132 55.3428C35.5147 51.445 41.7358 51.6756 40.7626 46.4611C39.7893 41.2467 43.4876 39.7069 43.4876 39.7069C43.4876 39.7069 38.4343 24.6439 49.9033 19.6229C61.3723 14.6019 66.8074 17.4955 67.586 24.0637Z" fill="#212121"/>
<path d="M32.101 63.9789C29.6829 61.0034 27.6092 55.6254 31.5844 52.9921C33.7479 51.3556 36.6377 50.9763 38.8012 49.5183C40.6428 48.4174 40.1936 46.1115 40.4407 44.3113C40.5741 43.286 40.9962 42.3189 41.6584 41.5214C42.3206 40.7239 43.196 40.1285 44.1838 39.8036C41.5861 40.8599 40.6578 43.7609 40.9348 46.3346C41.2567 49.6969 38.1798 50.9465 35.5596 51.8838C28.4701 54.2716 28.8294 58.214 32.101 63.9789Z" fill="#212121"/>
<path d="M108.529 32.7816C108.296 32.9575 108.118 33.1945 108.014 33.4659C107.91 33.7372 107.885 34.032 107.941 34.3169C107.997 34.6018 108.132 34.8654 108.332 35.0778C108.531 35.2903 108.786 35.4431 109.068 35.519C108.795 36.1277 108.741 36.8112 108.915 37.4547C109.09 38.0982 109.482 38.6623 110.026 39.0523C109.779 39.2533 109.603 39.5274 109.525 39.8346C109.446 40.1418 109.467 40.466 109.587 40.7599C109.706 41.0539 109.917 41.3022 110.189 41.4687C110.46 41.6353 110.778 41.7112 111.096 41.6856C111.106 42.0458 111.188 42.4005 111.339 42.7282C111.491 43.0558 111.707 43.3495 111.976 43.5915C112.245 43.8335 112.56 44.0188 112.903 44.1362C113.246 44.2535 113.609 44.3005 113.971 44.2742" stroke="#893B38" stroke-miterlimit="10"/>
</g>
</svg>
