<svg width="156" height="29" viewBox="0 0 156 29" fill="none" xmlns="http://www.w3.org/2000/svg">
<path d="M4.35853 26.0949C3.30268 26.1096 2.26909 25.7908 1.40496 25.1839C0.52905 24.5445 0.0350378 23.6336 0.0315341 22.6841L0 9.78017C0.557192 9.60585 1.15434 9.60585 1.71153 9.78017C1.72204 14.4067 1.73255 18.0575 1.74306 22.6841C1.74306 23.2342 2.167 23.6248 2.41751 23.8087C2.99234 24.2007 3.6752 24.4034 4.37079 24.3886L19.6729 24.343C20.368 24.3545 21.0492 24.1481 21.621 23.7527C21.8715 23.567 22.2919 23.1728 22.2901 22.6228L22.2569 7.96354L23.9666 4.72968L23.9999 22.6105C23.9999 23.5617 23.5077 24.4762 22.6423 25.1191C21.7768 25.7346 20.7384 26.0597 19.6764 26.0476L4.37604 26.0931L4.35853 26.0949Z" fill="#F7C90D"/>
<path d="M24 1C19.2333 4.15327 15.5912 9.00581 13.0371 13.4379C12.5288 11.5689 11.4953 9.88482 10.059 8.58537C7.90951 6.6864 3.98894 5.00116 1.47508 6.6286C0.855458 7.04596 0.354036 7.61617 0.0193176 8.28407C1.53289 7.80407 4.09755 8.34888 5.62514 8.92347C9.69987 10.2566 11.0207 14.5398 11.9825 18.2922C12.8146 17.5827 14.0847 17.2113 14.5629 16.19C15.2996 14.171 16.2653 12.2431 17.4412 10.4441C18.9662 8.09866 20.6786 5.88062 22.5617 3.81167L24 1Z" fill="#F7C90D"/>
<path d="M34.2036 23V8.888H29.4036V5.816H42.2436V8.888H37.4436V23H34.2036ZM49.6071 21.752H49.4151C49.0471 22.2 48.5991 22.584 48.0711 22.904C47.5591 23.224 46.8951 23.384 46.0791 23.384C45.4711 23.384 44.8951 23.28 44.3511 23.072C43.8231 22.88 43.3591 22.608 42.9591 22.256C42.5591 21.904 42.2471 21.48 42.0231 20.984C41.7991 20.488 41.6871 19.944 41.6871 19.352C41.6871 18.744 41.8071 18.2 42.0471 17.72C42.2871 17.224 42.6231 16.8 43.0551 16.448C43.4871 16.096 43.9911 15.832 44.5671 15.656C45.1591 15.464 45.7991 15.368 46.4871 15.368C47.2551 15.368 47.8871 15.432 48.3831 15.56C48.8791 15.672 49.2871 15.792 49.6071 15.92V15.56C49.6071 14.936 49.3591 14.424 48.8631 14.024C48.3671 13.608 47.7511 13.4 47.0151 13.4C45.9271 13.4 45.0071 13.856 44.2551 14.768L41.9751 13.208C43.2231 11.64 44.9271 10.856 47.0871 10.856C48.9111 10.856 50.3031 11.288 51.2631 12.152C52.2231 13 52.7031 14.264 52.7031 15.944V23H49.6071V21.752ZM49.6071 18.224C49.2391 18.048 48.8551 17.912 48.4551 17.816C48.0711 17.704 47.6471 17.648 47.1831 17.648C46.4311 17.648 45.8471 17.816 45.4311 18.152C45.0311 18.472 44.8311 18.872 44.8311 19.352C44.8311 19.832 45.0231 20.216 45.4071 20.504C45.8071 20.792 46.2631 20.936 46.7751 20.936C47.1911 20.936 47.5751 20.864 47.9271 20.72C48.2791 20.56 48.5751 20.36 48.8151 20.12C49.0711 19.864 49.2631 19.576 49.3911 19.256C49.5351 18.92 49.6071 18.576 49.6071 18.224ZM59.7416 23.384C58.9736 23.384 58.2856 23.288 57.6776 23.096C57.0856 22.904 56.5656 22.656 56.1176 22.352C55.6856 22.032 55.3176 21.672 55.0136 21.272C54.7096 20.856 54.4776 20.44 54.3176 20.024L57.1256 18.824C57.3976 19.432 57.7576 19.888 58.2056 20.192C58.6696 20.48 59.1816 20.624 59.7416 20.624C60.3176 20.624 60.7736 20.52 61.1096 20.312C61.4456 20.104 61.6136 19.856 61.6136 19.568C61.6136 19.248 61.4696 18.992 61.1816 18.8C60.9096 18.592 60.4296 18.408 59.7416 18.248L58.0856 17.888C57.7176 17.808 57.3336 17.68 56.9336 17.504C56.5496 17.328 56.1976 17.104 55.8776 16.832C55.5576 16.56 55.2936 16.232 55.0856 15.848C54.8776 15.464 54.7736 15.016 54.7736 14.504C54.7736 13.928 54.8936 13.416 55.1336 12.968C55.3896 12.52 55.7336 12.144 56.1656 11.84C56.5976 11.52 57.1016 11.28 57.6776 11.12C58.2696 10.944 58.9016 10.856 59.5736 10.856C60.6936 10.856 61.6936 11.08 62.5736 11.528C63.4536 11.96 64.1016 12.656 64.5176 13.616L61.8056 14.72C61.5816 14.256 61.2536 13.92 60.8216 13.712C60.3896 13.504 59.9576 13.4 59.5256 13.4C59.0776 13.4 58.6856 13.496 58.3496 13.688C58.0136 13.864 57.8456 14.096 57.8456 14.384C57.8456 14.656 57.9816 14.872 58.2536 15.032C58.5416 15.192 58.9256 15.336 59.4056 15.464L61.2056 15.896C62.4056 16.184 63.2936 16.648 63.8696 17.288C64.4616 17.912 64.7576 18.656 64.7576 19.52C64.7576 20.032 64.6376 20.52 64.3976 20.984C64.1576 21.448 63.8136 21.864 63.3656 22.232C62.9336 22.584 62.4056 22.864 61.7816 23.072C61.1736 23.28 60.4936 23.384 59.7416 23.384ZM66.6872 5.816H69.8312V15.176H69.9752L73.9112 11.24H77.7992V11.432L73.4312 15.68L78.1592 22.808V23H74.4392L71.2232 17.84L69.8312 19.208V23H66.6872V5.816ZM79.7978 5.816H82.9898L88.2458 14.912H88.4378L93.6938 5.816H96.9098V23H93.6938V14.528L93.8858 11.648H93.6938L89.3258 19.352H87.3818L82.9898 11.648H82.7978L82.9898 14.528V23H79.7978V5.816ZM106.888 21.752H106.696C106.328 22.2 105.88 22.584 105.352 22.904C104.84 23.224 104.176 23.384 103.36 23.384C102.752 23.384 102.176 23.28 101.632 23.072C101.104 22.88 100.64 22.608 100.24 22.256C99.8403 21.904 99.5283 21.48 99.3043 20.984C99.0803 20.488 98.9683 19.944 98.9683 19.352C98.9683 18.744 99.0883 18.2 99.3283 17.72C99.5683 17.224 99.9043 16.8 100.336 16.448C100.768 16.096 101.272 15.832 101.848 15.656C102.44 15.464 103.08 15.368 103.768 15.368C104.536 15.368 105.168 15.432 105.664 15.56C106.16 15.672 106.568 15.792 106.888 15.92V15.56C106.888 14.936 106.64 14.424 106.144 14.024C105.648 13.608 105.032 13.4 104.296 13.4C103.208 13.4 102.288 13.856 101.536 14.768L99.2563 13.208C100.504 11.64 102.208 10.856 104.368 10.856C106.192 10.856 107.584 11.288 108.544 12.152C109.504 13 109.984 14.264 109.984 15.944V23H106.888V21.752ZM106.888 18.224C106.52 18.048 106.136 17.912 105.736 17.816C105.352 17.704 104.928 17.648 104.464 17.648C103.712 17.648 103.128 17.816 102.712 18.152C102.312 18.472 102.112 18.872 102.112 19.352C102.112 19.832 102.304 20.216 102.688 20.504C103.088 20.792 103.544 20.936 104.056 20.936C104.472 20.936 104.856 20.864 105.208 20.72C105.56 20.56 105.856 20.36 106.096 20.12C106.352 19.864 106.544 19.576 106.672 19.256C106.816 18.92 106.888 18.576 106.888 18.224ZM117.023 23.384C116.255 23.384 115.567 23.288 114.959 23.096C114.367 22.904 113.847 22.656 113.399 22.352C112.967 22.032 112.599 21.672 112.295 21.272C111.991 20.856 111.759 20.44 111.599 20.024L114.407 18.824C114.679 19.432 115.039 19.888 115.487 20.192C115.951 20.48 116.463 20.624 117.023 20.624C117.599 20.624 118.055 20.52 118.391 20.312C118.727 20.104 118.895 19.856 118.895 19.568C118.895 19.248 118.751 18.992 118.463 18.8C118.191 18.592 117.711 18.408 117.023 18.248L115.367 17.888C114.999 17.808 114.615 17.68 114.215 17.504C113.831 17.328 113.479 17.104 113.159 16.832C112.839 16.56 112.575 16.232 112.367 15.848C112.159 15.464 112.055 15.016 112.055 14.504C112.055 13.928 112.175 13.416 112.415 12.968C112.671 12.52 113.015 12.144 113.447 11.84C113.879 11.52 114.383 11.28 114.959 11.12C115.551 10.944 116.183 10.856 116.855 10.856C117.975 10.856 118.975 11.08 119.855 11.528C120.735 11.96 121.383 12.656 121.799 13.616L119.087 14.72C118.863 14.256 118.535 13.92 118.103 13.712C117.671 13.504 117.239 13.4 116.807 13.4C116.359 13.4 115.967 13.496 115.631 13.688C115.295 13.864 115.127 14.096 115.127 14.384C115.127 14.656 115.263 14.872 115.535 15.032C115.823 15.192 116.207 15.336 116.687 15.464L118.487 15.896C119.687 16.184 120.575 16.648 121.151 17.288C121.743 17.912 122.039 18.656 122.039 19.52C122.039 20.032 121.919 20.52 121.679 20.984C121.439 21.448 121.095 21.864 120.647 22.232C120.215 22.584 119.687 22.864 119.063 23.072C118.455 23.28 117.775 23.384 117.023 23.384ZM125.147 13.928H123.083V11.24H125.147V7.64H128.291V11.24H131.171V13.928H128.291V18.488C128.291 18.76 128.315 19.016 128.363 19.256C128.427 19.48 128.539 19.672 128.699 19.832C128.923 20.088 129.243 20.216 129.659 20.216C129.931 20.216 130.147 20.192 130.307 20.144C130.467 20.08 130.619 20 130.763 19.904L131.651 22.664C131.283 22.84 130.883 22.968 130.451 23.048C130.035 23.144 129.571 23.192 129.059 23.192C128.467 23.192 127.931 23.104 127.451 22.928C126.987 22.736 126.595 22.48 126.275 22.16C125.523 21.44 125.147 20.416 125.147 19.088V13.928ZM144.503 20.168C143.959 21.128 143.223 21.904 142.295 22.496C141.383 23.088 140.263 23.384 138.935 23.384C138.039 23.384 137.207 23.232 136.439 22.928C135.687 22.608 135.031 22.168 134.471 21.608C133.911 21.048 133.471 20.392 133.151 19.64C132.847 18.872 132.695 18.032 132.695 17.12C132.695 16.272 132.847 15.472 133.151 14.72C133.455 13.952 133.879 13.288 134.423 12.728C134.967 12.152 135.607 11.696 136.343 11.36C137.095 11.024 137.919 10.856 138.815 10.856C139.759 10.856 140.599 11.016 141.335 11.336C142.071 11.64 142.687 12.072 143.183 12.632C143.679 13.176 144.055 13.824 144.311 14.576C144.567 15.328 144.695 16.144 144.695 17.024C144.695 17.136 144.695 17.232 144.695 17.312C144.679 17.408 144.671 17.496 144.671 17.576C144.655 17.656 144.647 17.744 144.647 17.84H135.791C135.855 18.32 135.983 18.736 136.175 19.088C136.383 19.424 136.631 19.712 136.919 19.952C137.223 20.176 137.551 20.344 137.903 20.456C138.255 20.552 138.615 20.6 138.983 20.6C139.703 20.6 140.295 20.44 140.759 20.12C141.239 19.784 141.615 19.368 141.887 18.872L144.503 20.168ZM141.647 15.608C141.631 15.4 141.559 15.168 141.431 14.912C141.319 14.656 141.143 14.416 140.903 14.192C140.679 13.968 140.391 13.784 140.039 13.64C139.703 13.496 139.295 13.424 138.815 13.424C138.143 13.424 137.551 13.616 137.039 14C136.527 14.384 136.167 14.92 135.959 15.608H141.647ZM146.703 11.24H149.655V12.872H149.847C149.991 12.584 150.183 12.32 150.423 12.08C150.663 11.84 150.927 11.632 151.215 11.456C151.519 11.28 151.839 11.144 152.175 11.048C152.527 10.952 152.871 10.904 153.207 10.904C153.623 10.904 153.975 10.944 154.263 11.024C154.567 11.104 154.823 11.208 155.031 11.336L154.191 14.192C153.999 14.096 153.783 14.024 153.543 13.976C153.319 13.912 153.039 13.88 152.703 13.88C152.271 13.88 151.879 13.968 151.527 14.144C151.175 14.304 150.871 14.536 150.615 14.84C150.375 15.144 150.183 15.504 150.039 15.92C149.911 16.32 149.847 16.76 149.847 17.24V23H146.703V11.24Z" fill="black"/>
</svg>
