<svg width="330" height="70" viewBox="0 0 330 70" fill="none" xmlns="http://www.w3.org/2000/svg">
<path d="M11.4412 65.874C8.66954 65.9127 5.95637 65.0759 3.68802 63.4827C1.38876 61.8043 0.0919743 59.4131 0.0827772 56.9207L0 23.0479C1.46263 22.5902 3.03014 22.5902 4.49277 23.0479C4.52036 35.1926 4.54795 44.7759 4.57554 56.9207C4.57554 58.3646 5.68839 59.3901 6.34598 59.8729C7.8549 60.9018 9.64741 61.4339 11.4733 61.395L51.6415 61.2755C53.466 61.3055 55.2542 60.7636 56.7551 59.7257C57.4127 59.2383 58.5163 58.2036 58.5117 56.7597L58.4243 18.2792L62.9125 9.79028L62.9999 56.7275C62.9999 59.2245 61.7077 61.6249 59.436 63.3126C57.1641 64.9282 54.4383 65.7816 51.6507 65.7498L11.4871 65.8694L11.4412 65.874Z" fill="#F7C90D"/>
<path d="M63.0001 0C50.4875 8.27736 40.9271 21.0153 34.2225 32.6496C32.8883 27.7434 30.1753 23.3227 26.405 19.9116C20.7626 14.9268 10.4711 10.503 3.87216 14.7751C2.24565 15.8707 0.929419 17.3675 0.0507812 19.1207C4.02391 17.8607 10.7562 19.2908 14.7661 20.7991C25.4623 24.2986 28.9296 35.5421 31.4542 45.3921C33.6385 43.5297 36.9724 42.5548 38.2278 39.8739C40.1615 34.5739 42.6966 29.5131 45.7832 24.7907C49.7864 18.634 54.2816 12.8117 59.2247 7.38064L63.0001 0Z" fill="#F7C90D"/>
<path d="M87.752 58V29.776H78.152V23.632H103.832V29.776H94.232V58H87.752ZM118.559 55.504H118.175C117.439 56.4 116.543 57.168 115.487 57.808C114.463 58.448 113.135 58.768 111.503 58.768C110.287 58.768 109.135 58.56 108.047 58.144C106.991 57.76 106.063 57.216 105.263 56.512C104.463 55.808 103.839 54.96 103.391 53.968C102.943 52.976 102.719 51.888 102.719 50.704C102.719 49.488 102.959 48.4 103.439 47.44C103.919 46.448 104.591 45.6 105.455 44.896C106.319 44.192 107.327 43.664 108.479 43.312C109.663 42.928 110.943 42.736 112.319 42.736C113.855 42.736 115.119 42.864 116.111 43.12C117.103 43.344 117.919 43.584 118.559 43.84V43.12C118.559 41.872 118.063 40.848 117.071 40.048C116.079 39.216 114.847 38.8 113.375 38.8C111.199 38.8 109.359 39.712 107.855 41.536L103.295 38.416C105.791 35.28 109.199 33.712 113.519 33.712C117.167 33.712 119.951 34.576 121.871 36.304C123.791 38 124.751 40.528 124.751 43.888V58H118.559V55.504ZM118.559 48.448C117.823 48.096 117.055 47.824 116.255 47.632C115.487 47.408 114.639 47.296 113.711 47.296C112.207 47.296 111.039 47.632 110.207 48.304C109.407 48.944 109.007 49.744 109.007 50.704C109.007 51.664 109.391 52.432 110.159 53.008C110.959 53.584 111.871 53.872 112.895 53.872C113.727 53.872 114.495 53.728 115.199 53.44C115.903 53.12 116.495 52.72 116.975 52.24C117.487 51.728 117.871 51.152 118.127 50.512C118.415 49.84 118.559 49.152 118.559 48.448ZM138.828 58.768C137.292 58.768 135.916 58.576 134.7 58.192C133.516 57.808 132.476 57.312 131.58 56.704C130.716 56.064 129.98 55.344 129.372 54.544C128.764 53.712 128.3 52.88 127.98 52.048L133.596 49.648C134.14 50.864 134.86 51.776 135.756 52.384C136.684 52.96 137.708 53.248 138.828 53.248C139.98 53.248 140.892 53.04 141.564 52.624C142.236 52.208 142.572 51.712 142.572 51.136C142.572 50.496 142.284 49.984 141.708 49.6C141.164 49.184 140.204 48.816 138.828 48.496L135.516 47.776C134.78 47.616 134.012 47.36 133.212 47.008C132.444 46.656 131.74 46.208 131.1 45.664C130.46 45.12 129.932 44.464 129.516 43.696C129.1 42.928 128.892 42.032 128.892 41.008C128.892 39.856 129.132 38.832 129.612 37.936C130.124 37.04 130.812 36.288 131.676 35.68C132.54 35.04 133.548 34.56 134.7 34.24C135.884 33.888 137.148 33.712 138.492 33.712C140.732 33.712 142.732 34.16 144.492 35.056C146.252 35.92 147.548 37.312 148.38 39.232L142.956 41.44C142.508 40.512 141.852 39.84 140.988 39.424C140.124 39.008 139.26 38.8 138.396 38.8C137.5 38.8 136.716 38.992 136.044 39.376C135.372 39.728 135.036 40.192 135.036 40.768C135.036 41.312 135.308 41.744 135.852 42.064C136.428 42.384 137.196 42.672 138.156 42.928L141.756 43.792C144.156 44.368 145.932 45.296 147.084 46.576C148.268 47.824 148.86 49.312 148.86 51.04C148.86 52.064 148.62 53.04 148.14 53.968C147.66 54.896 146.972 55.728 146.076 56.464C145.212 57.168 144.156 57.728 142.908 58.144C141.692 58.56 140.332 58.768 138.828 58.768ZM152.719 23.632H159.007V42.352H159.295L167.167 34.48H174.943V34.864L166.207 43.36L175.663 57.616V58H168.223L161.791 47.68L159.007 50.416V58H152.719V23.632ZM178.94 23.632H185.324L195.836 41.824H196.22L206.732 23.632H213.164V58H206.732V41.056L207.116 35.296H206.732L197.996 50.704H194.108L185.324 35.296H184.94L185.324 41.056V58H178.94V23.632ZM233.122 55.504H232.738C232.002 56.4 231.106 57.168 230.049 57.808C229.026 58.448 227.698 58.768 226.066 58.768C224.85 58.768 223.698 58.56 222.61 58.144C221.554 57.76 220.626 57.216 219.826 56.512C219.026 55.808 218.402 54.96 217.954 53.968C217.506 52.976 217.282 51.888 217.282 50.704C217.282 49.488 217.522 48.4 218.002 47.44C218.482 46.448 219.154 45.6 220.018 44.896C220.882 44.192 221.89 43.664 223.042 43.312C224.226 42.928 225.506 42.736 226.882 42.736C228.418 42.736 229.682 42.864 230.674 43.12C231.666 43.344 232.482 43.584 233.122 43.84V43.12C233.122 41.872 232.626 40.848 231.634 40.048C230.642 39.216 229.41 38.8 227.938 38.8C225.762 38.8 223.922 39.712 222.418 41.536L217.858 38.416C220.354 35.28 223.762 33.712 228.082 33.712C231.73 33.712 234.514 34.576 236.434 36.304C238.354 38 239.314 40.528 239.314 43.888V58H233.122V55.504ZM233.122 48.448C232.386 48.096 231.618 47.824 230.818 47.632C230.05 47.408 229.202 47.296 228.273 47.296C226.77 47.296 225.602 47.632 224.77 48.304C223.97 48.944 223.57 49.744 223.57 50.704C223.57 51.664 223.954 52.432 224.722 53.008C225.522 53.584 226.434 53.872 227.458 53.872C228.29 53.872 229.058 53.728 229.762 53.44C230.466 53.12 231.058 52.72 231.538 52.24C232.05 51.728 232.434 51.152 232.69 50.512C232.978 49.84 233.122 49.152 233.122 48.448ZM253.391 58.768C251.855 58.768 250.479 58.576 249.263 58.192C248.079 57.808 247.039 57.312 246.143 56.704C245.279 56.064 244.543 55.344 243.935 54.544C243.327 53.712 242.863 52.88 242.543 52.048L248.159 49.648C248.703 50.864 249.423 51.776 250.319 52.384C251.247 52.96 252.271 53.248 253.391 53.248C254.543 53.248 255.455 53.04 256.127 52.624C256.799 52.208 257.135 51.712 257.135 51.136C257.135 50.496 256.847 49.984 256.271 49.6C255.727 49.184 254.767 48.816 253.391 48.496L250.079 47.776C249.343 47.616 248.575 47.36 247.775 47.008C247.007 46.656 246.303 46.208 245.663 45.664C245.023 45.12 244.495 44.464 244.079 43.696C243.663 42.928 243.455 42.032 243.455 41.008C243.455 39.856 243.695 38.832 244.175 37.936C244.687 37.04 245.375 36.288 246.239 35.68C247.103 35.04 248.111 34.56 249.263 34.24C250.447 33.888 251.711 33.712 253.055 33.712C255.295 33.712 257.295 34.16 259.055 35.056C260.815 35.92 262.111 37.312 262.943 39.232L257.519 41.44C257.071 40.512 256.415 39.84 255.551 39.424C254.687 39.008 253.823 38.8 252.959 38.8C252.063 38.8 251.279 38.992 250.607 39.376C249.935 39.728 249.599 40.192 249.599 40.768C249.599 41.312 249.871 41.744 250.415 42.064C250.991 42.384 251.759 42.672 252.719 42.928L256.319 43.792C258.719 44.368 260.495 45.296 261.647 46.576C262.831 47.824 263.423 49.312 263.423 51.04C263.423 52.064 263.183 53.04 262.703 53.968C262.223 54.896 261.535 55.728 260.639 56.464C259.775 57.168 258.719 57.728 257.471 58.144C256.255 58.56 254.895 58.768 253.391 58.768ZM269.639 39.856H265.511V34.48H269.639V27.28H275.927V34.48H281.687V39.856H275.927V48.976C275.927 49.52 275.975 50.032 276.071 50.512C276.199 50.96 276.423 51.344 276.743 51.664C277.191 52.176 277.831 52.432 278.663 52.432C279.207 52.432 279.639 52.384 279.959 52.288C280.279 52.16 280.583 52 280.871 51.808L282.647 57.328C281.911 57.68 281.111 57.936 280.247 58.096C279.415 58.288 278.487 58.384 277.463 58.384C276.279 58.384 275.207 58.208 274.247 57.856C273.319 57.472 272.535 56.96 271.895 56.32C270.391 54.88 269.639 52.832 269.639 50.176V39.856ZM308.351 52.336C307.263 54.256 305.791 55.808 303.935 56.992C302.111 58.176 299.871 58.768 297.215 58.768C295.423 58.768 293.759 58.464 292.223 57.856C290.719 57.216 289.407 56.336 288.287 55.216C287.167 54.096 286.287 52.784 285.647 51.28C285.039 49.744 284.735 48.064 284.735 46.24C284.735 44.544 285.039 42.944 285.647 41.44C286.255 39.904 287.103 38.576 288.191 37.456C289.279 36.304 290.559 35.392 292.031 34.72C293.535 34.048 295.183 33.712 296.975 33.712C298.863 33.712 300.543 34.032 302.015 34.672C303.487 35.28 304.719 36.144 305.711 37.264C306.703 38.352 307.455 39.648 307.967 41.152C308.479 42.656 308.735 44.288 308.735 46.048C308.735 46.272 308.735 46.464 308.735 46.624C308.703 46.816 308.687 46.992 308.687 47.152C308.655 47.312 308.639 47.488 308.639 47.68H290.927C291.055 48.64 291.311 49.472 291.695 50.176C292.111 50.848 292.607 51.424 293.183 51.904C293.791 52.352 294.447 52.688 295.151 52.912C295.855 53.104 296.575 53.2 297.311 53.2C298.751 53.2 299.935 52.88 300.863 52.24C301.823 51.568 302.575 50.736 303.119 49.744L308.351 52.336ZM302.639 43.216C302.607 42.8 302.463 42.336 302.207 41.824C301.983 41.312 301.631 40.832 301.151 40.384C300.703 39.936 300.127 39.568 299.423 39.28C298.751 38.992 297.935 38.848 296.975 38.848C295.631 38.848 294.447 39.232 293.423 40C292.399 40.768 291.679 41.84 291.263 43.216H302.639ZM312.751 34.48H318.655V37.744H319.039C319.327 37.168 319.711 36.64 320.191 36.16C320.671 35.68 321.199 35.264 321.775 34.912C322.383 34.56 323.023 34.288 323.695 34.096C324.399 33.904 325.087 33.808 325.759 33.808C326.591 33.808 327.295 33.888 327.871 34.048C328.479 34.208 328.991 34.416 329.407 34.672L327.727 40.384C327.343 40.192 326.911 40.048 326.431 39.952C325.983 39.824 325.423 39.76 324.751 39.76C323.887 39.76 323.103 39.936 322.398 40.288C321.695 40.608 321.087 41.072 320.575 41.68C320.095 42.288 319.711 43.008 319.423 43.84C319.167 44.64 319.039 45.52 319.039 46.48V58H312.751V34.48Z" fill="white"/>
</svg>
