<svg width="17" height="18" viewBox="0 0 17 18" fill="none" xmlns="http://www.w3.org/2000/svg">
<path d="M7.58823 0.999979V0.999979C7.58823 2.489 7.58823 3.23351 7.39246 3.83604C6.99679 5.05379 6.04205 6.00853 4.8243 6.4042C4.22177 6.59998 3.47726 6.59998 1.98824 6.59998L1 6.59998" stroke="black" stroke-width="1.4"/>
<path d="M5.11967 2.36994L3.73074 3.46958C2.5407 4.41177 1.94568 4.88286 1.57055 5.50771C1.44678 5.71388 1.34186 5.93078 1.25705 6.15579C1 6.83776 1 7.59669 1 9.11456V9.79999C1 12.7998 1 14.2997 1.76393 15.3511C2.01065 15.6907 2.30928 15.9893 2.64886 16.2361C3.70032 17 5.20021 17 8.2 17C11.1998 17 12.6997 17 13.7511 16.2361C14.0907 15.9893 14.3893 15.6907 14.6361 15.3511C15.4 14.2997 15.4 12.7998 15.4 9.8V7.34302C15.4 5.15655 15.4 4.06332 14.9841 3.22403C14.5955 2.43971 13.9603 1.80452 13.176 1.41588C12.3367 1 11.2434 1 9.05697 1C8.25114 1 7.84822 1 7.46224 1.07669C7.09887 1.14889 6.74729 1.27121 6.41758 1.44017C6.06736 1.61963 5.75147 1.86973 5.11967 2.36994Z" stroke="black" stroke-width="1.4"/>
<path d="M6.6 11.8364C6.6 11.8364 7.51916 13 7.66666 13C7.81416 13 10.2 9.80005 10.2 9.80005" stroke="black" stroke-width="1.4" stroke-linecap="round"/>
</svg>
