<svg width="208" height="208" viewBox="0 0 208 208" fill="none" xmlns="http://www.w3.org/2000/svg">
<circle cx="104" cy="104" r="104" fill="white"/>
<circle cx="104" cy="78" r="32" fill="#D9D9D9"/>
<mask id="mask0_188_835" style="mask-type:alpha" maskUnits="userSpaceOnUse" x="0" y="0" width="208" height="208">
<circle cx="104" cy="104" r="104" fill="white"/>
</mask>
<g mask="url(#mask0_188_835)">
<ellipse cx="103.5" cy="183" rx="88.5" ry="65" fill="#D9D9D9"/>
<path fill-rule="evenodd" clip-rule="evenodd" d="M102.544 65C102.616 65 102.689 65 102.763 65H105.882C105.956 65 106.029 65 106.101 65C107.862 64.9997 109.058 64.9996 110.227 65.171C112.689 65.5322 115.034 66.4575 117.079 67.8747C118.05 68.5476 118.923 69.3643 120.21 70.5674L121.688 71.9489C122.518 72.725 123.612 73.1567 124.749 73.1567C136.842 73.1567 146.645 82.9599 146.645 95.0526V111.816C146.645 116.795 146.645 120.726 146.376 123.887C146.101 127.116 145.528 129.821 144.219 132.269C142.308 135.839 139.384 138.763 135.813 140.674C133.366 141.984 130.661 142.556 127.432 142.831C124.271 143.1 120.339 143.1 115.36 143.1H93.2842C88.3055 143.1 84.3741 143.1 81.2129 142.831C77.9838 142.556 75.2786 141.984 72.8312 140.674C69.2611 138.763 66.3365 135.839 64.4261 132.269C63.1164 129.821 62.544 127.116 62.2691 123.887C62 120.726 62 116.795 62 111.816L62 95.0526C62 82.9598 71.8031 73.1567 83.8959 73.1567C85.0324 73.1567 86.1265 72.725 86.9568 71.9489L88.2747 70.717C88.3288 70.6665 88.3821 70.6166 88.4348 70.5674C89.7215 69.3643 90.5949 68.5476 91.5659 67.8747C93.611 66.4575 95.9559 65.5322 98.4177 65.171C99.5865 64.9996 100.782 64.9997 102.544 65ZM102.763 71.1084C100.703 71.1084 99.9777 71.1159 99.3044 71.2147C97.7741 71.4392 96.3164 72.0144 95.0452 72.8954C94.4858 73.283 93.9507 73.7729 92.4459 75.1795L91.128 76.4114C89.1663 78.2451 86.5812 79.2651 83.8959 79.2651C75.1767 79.2651 68.1084 86.3334 68.1084 95.0526V111.675C68.1084 116.826 68.111 120.497 68.3555 123.369C68.5967 126.203 69.0567 127.976 69.8118 129.387C71.1532 131.893 73.2066 133.947 75.7132 135.288C77.1242 136.043 78.8973 136.503 81.731 136.745C84.6028 136.989 88.2744 136.992 93.4253 136.992H115.219C120.37 136.992 124.042 136.989 126.914 136.745C129.747 136.503 131.52 136.043 132.931 135.288C135.438 133.947 137.491 131.893 138.833 129.387C139.588 127.976 140.048 126.203 140.289 123.369C140.534 120.497 140.536 116.826 140.536 111.675V95.0526C140.536 86.3334 133.468 79.2651 124.749 79.2651C122.063 79.2651 119.478 78.2451 117.517 76.4114L116.199 75.1795C114.694 73.7729 114.159 73.283 113.599 72.8954C112.328 72.0144 110.871 71.4392 109.34 71.2147C108.667 71.1159 107.942 71.1084 105.882 71.1084H102.763Z" fill="#0846A0" fill-opacity="0.5"/>
<path fill-rule="evenodd" clip-rule="evenodd" d="M104.322 101.65C98.7801 101.65 94.2871 106.143 94.2871 111.685C94.2871 117.228 98.7801 121.721 104.322 121.721C109.865 121.721 114.358 117.228 114.358 111.685C114.358 106.143 109.865 101.65 104.322 101.65ZM88.1788 111.685C88.1788 102.77 95.4065 95.5419 104.322 95.5419C113.238 95.5419 120.466 102.77 120.466 111.685C120.466 120.601 113.238 127.829 104.322 127.829C95.4065 127.829 88.1788 120.601 88.1788 111.685Z" fill="#0846A0" fill-opacity="0.5"/>
<path fill-rule="evenodd" clip-rule="evenodd" d="M118.721 89.8698C118.721 88.1831 120.088 86.8157 121.775 86.8157H126.138C127.825 86.8157 129.192 88.1831 129.192 89.8698C129.192 91.5566 127.825 92.924 126.138 92.924H121.775C120.088 92.924 118.721 91.5566 118.721 89.8698Z" fill="#0846A0" fill-opacity="0.5"/>
</g>
</svg>
