<svg width="29" height="29" viewBox="0 0 29 29" fill="none" xmlns="http://www.w3.org/2000/svg">
<path d="M13.0815 15.5562L8.83884 19.7988" stroke="white" stroke-width="1.4" stroke-linecap="round"/>
<path d="M8.76299 20.5228L11.2658 23.8599C12.6556 25.713 13.3505 26.6396 14.187 26.6865C14.4453 26.701 14.7146 26.657 14.9548 26.5612C15.733 26.2507 16.0923 25.1662 16.811 22.9971C17.2507 21.6701 17.6879 20.2934 18.0312 19.0919C18.5084 17.4217 19.1672 15.0171 19.7616 12.8243C20.3331 10.7158 20.6188 9.66161 20.1814 8.98713C20.0443 8.77581 19.862 8.59349 19.6507 8.45643C18.9762 8.01898 17.922 8.30474 15.8136 8.87626C13.6208 9.47065 11.2161 10.1294 9.54593 10.6066C8.34441 10.9499 6.96768 11.3872 5.64069 11.8268C3.47162 12.5455 2.38709 12.9048 2.07664 13.683C1.98078 13.9233 1.93684 14.1925 1.95133 14.4508C1.99825 15.2873 2.92479 15.9822 4.77788 17.372L8.11499 19.8748C8.27925 19.998 8.36138 20.0596 8.43572 20.1299C8.46048 20.1532 8.48457 20.1773 8.50796 20.2021C8.57819 20.2764 8.63979 20.3586 8.76299 20.5228Z" stroke="white" stroke-width="1.4"/>
</svg>
