<svg width="40" height="40" viewBox="0 0 40 40" fill="none" xmlns="http://www.w3.org/2000/svg">
<rect width="40" height="40" rx="4" fill="#EDE4FF"/>
<path d="M11.3262 26.6644C11.4182 25.3756 11.4643 24.7311 11.6601 24.2705C12.0404 23.3758 12.7134 22.7929 13.6532 22.5441C14.1371 22.416 14.8333 22.4661 16.2258 22.5664C17.2131 22.6374 18.2594 22.6872 19.2545 22.6872C20.3858 22.6872 21.6352 22.6229 22.8068 22.536C24.1812 22.4342 24.8683 22.3832 25.365 22.5184C26.2754 22.7663 26.9497 23.3492 27.3268 24.2141C27.5325 24.6859 27.5788 25.3336 27.6713 26.6289C27.7629 27.9118 27.8088 28.5533 27.6585 29.0694C27.3928 29.9817 26.7108 30.7141 25.8199 31.0441C25.3157 31.2308 24.6726 31.2308 23.3864 31.2308H19.2545H15.578C14.3249 31.2308 13.6984 31.2308 13.2058 31.0534C12.2937 30.7251 11.5966 29.9763 11.334 29.0432C11.1923 28.5392 11.2369 27.9143 11.3262 26.6644Z" fill="#8C51FF" stroke="#8C51FF" stroke-width="1.4"/>
<path d="M14.9231 13C14.9231 10.7909 16.7139 9 18.9231 9H20.0769C22.286 9 24.0769 10.7909 24.0769 13V14.2308C24.0769 16.3974 22.3205 18.1538 20.1538 18.1538H18.8461C16.6795 18.1538 14.9231 16.3974 14.9231 14.2308V13Z" fill="#8C51FF" stroke="#8C51FF" stroke-width="1.4"/>
</svg>
