<svg width="40" height="40" viewBox="0 0 40 40" fill="none" xmlns="http://www.w3.org/2000/svg">
<rect width="40" height="40" rx="4" fill="#FFB6B6"/>
<path d="M17.8326 12.889C18.3874 11.9811 18.771 11.3558 19.1067 10.931C19.441 10.5078 19.6381 10.4036 19.7767 10.3748C19.924 10.3443 20.076 10.3443 20.2233 10.3748C20.3619 10.4036 20.5589 10.5078 20.8933 10.931C21.2289 11.3558 21.6125 11.9811 22.1673 12.889L29.8347 25.4355C30.4319 26.4128 30.845 27.0912 31.0871 27.6212C31.3302 28.1536 31.3281 28.3879 31.2861 28.5242C31.2401 28.6733 31.1629 28.8109 31.0597 28.9278C30.9653 29.0348 30.7664 29.1588 30.1854 29.2289C29.6069 29.2988 28.8126 29.3 27.6673 29.3H12.3326C11.1873 29.3 10.393 29.2988 9.81452 29.2289C9.23354 29.1588 9.0347 29.0348 8.94028 28.9278C8.83706 28.8109 8.75989 28.6733 8.71391 28.5242C8.67185 28.3879 8.66978 28.1536 8.91288 27.6212C9.15495 27.0912 9.5681 26.4128 10.1653 25.4355L17.8326 12.889Z" fill="#B50505" stroke="#B50505" stroke-width="1.4"/>
<path d="M20 17.7778V22.6667" stroke="#FFB6B6" stroke-width="1.4" stroke-linecap="round"/>
<path d="M20.8555 25.4777C20.8555 25.9503 20.4725 26.3333 20 26.3333C19.5275 26.3333 19.1444 25.9503 19.1444 25.4777C19.1444 25.0052 19.5275 24.6222 20 24.6222C20.4725 24.6222 20.8555 25.0052 20.8555 25.4777Z" fill="#FFB6B6"/>
</svg>
