<svg width="40" height="40" viewBox="0 0 40 40" fill="none" xmlns="http://www.w3.org/2000/svg">
<rect width="40" height="40" rx="4" fill="#FFF6D4"/>
<path d="M18.3172 9.61992C19.1044 8.39439 20.8956 8.39439 21.6828 9.61992L24.3517 13.7751C24.6225 14.1968 25.0418 14.5014 25.5265 14.6287L30.3031 15.8829C31.7119 16.2529 32.2654 17.9564 31.3431 19.0838L28.216 22.9061C27.8987 23.294 27.7385 23.7869 27.7673 24.2872L28.0504 29.2176C28.134 30.6717 26.6848 31.7246 25.3276 31.1958L20.7261 29.4029C20.2591 29.221 19.7409 29.221 19.2739 29.4029L14.6724 31.1958C13.3152 31.7246 11.866 30.6717 11.9496 29.2176L12.2327 24.2872C12.2615 23.7869 12.1013 23.294 11.784 22.9061L8.65689 19.0838C7.73459 17.9564 8.28812 16.2529 9.6969 15.8829L14.4735 14.6287C14.9582 14.5014 15.3775 14.1968 15.6483 13.7751L18.3172 9.61992Z" fill="#F7C90D" stroke="#F7C90D" stroke-width="1.4"/>
</svg>
