<svg width="40" height="40" viewBox="0 0 40 40" fill="none" xmlns="http://www.w3.org/2000/svg">
<rect width="40" height="40" rx="4" fill="#FFE4F2"/>
<path fill-rule="evenodd" clip-rule="evenodd" d="M19.8571 31C22.0476 31 29.7143 25.25 29.7143 18.35C29.7143 11.45 25.3011 8 19.8571 8C14.4132 8 10 11.45 10 18.35C10 25.25 17.6667 31 19.8571 31ZM19.8571 20.5952C21.823 20.5952 23.4167 19.0016 23.4167 17.0357C23.4167 15.0698 21.823 13.4762 19.8571 13.4762C17.8913 13.4762 16.2976 15.0698 16.2976 17.0357C16.2976 19.0016 17.8913 20.5952 19.8571 20.5952Z" fill="#F478B8"/>
<path d="M29.0143 18.35C29.0143 21.5462 27.2296 24.544 25.1002 26.7797C24.0428 27.89 22.9237 28.787 21.9483 29.4015C21.4604 29.7089 21.0181 29.9395 20.6456 30.0911C20.2606 30.2479 19.999 30.3 19.8571 30.3V31.7C20.2629 31.7 20.7201 31.5724 21.1736 31.3878C21.6397 31.198 22.1557 30.9255 22.6946 30.586C23.7727 29.9068 24.981 28.935 26.114 27.7453C28.3657 25.381 30.4143 22.0538 30.4143 18.35H29.0143ZM19.8571 8.7C22.4329 8.7 24.7107 9.51456 26.3406 11.0907C27.9648 12.6614 29.0143 15.0549 29.0143 18.35H30.4143C30.4143 14.7451 29.2572 11.9636 27.3138 10.0843C25.3761 8.21044 22.7253 7.3 19.8571 7.3V8.7ZM10.7 18.35C10.7 15.0549 11.7495 12.6614 13.3737 11.0907C15.0036 9.51456 17.2814 8.7 19.8571 8.7V7.3C16.989 7.3 14.3382 8.21044 12.4005 10.0843C10.4571 11.9636 9.3 14.7451 9.3 18.35H10.7ZM19.8571 30.3C19.7153 30.3 19.4537 30.2479 19.0686 30.0911C18.6962 29.9395 18.2539 29.7089 17.766 29.4015C16.7906 28.787 15.6714 27.89 14.614 26.7797C12.4847 24.544 10.7 21.5462 10.7 18.35H9.3C9.3 22.0538 11.3486 25.381 13.6002 27.7453C14.7333 28.935 15.9415 29.9068 17.0197 30.586C17.5586 30.9255 18.0746 31.198 18.5407 31.3878C18.9942 31.5724 19.4514 31.7 19.8571 31.7V30.3ZM22.7167 17.0357C22.7167 18.615 21.4364 19.8952 19.8571 19.8952V21.2952C22.2096 21.2952 24.1167 19.3882 24.1167 17.0357H22.7167ZM19.8571 14.1762C21.4364 14.1762 22.7167 15.4564 22.7167 17.0357H24.1167C24.1167 14.6832 22.2096 12.7762 19.8571 12.7762V14.1762ZM16.9976 17.0357C16.9976 15.4564 18.2779 14.1762 19.8571 14.1762V12.7762C17.5047 12.7762 15.5976 14.6832 15.5976 17.0357H16.9976ZM19.8571 19.8952C18.2779 19.8952 16.9976 18.615 16.9976 17.0357H15.5976C15.5976 19.3882 17.5047 21.2952 19.8571 21.2952V19.8952Z" fill="#F478B8"/>
</svg>
