<svg width="40" height="40" viewBox="0 0 40 40" fill="none" xmlns="http://www.w3.org/2000/svg">
<rect width="40" height="40" rx="4" fill="#FFE6D4"/>
<mask id="path-2-inside-1_49_1482" fill="white">
<path fill-rule="evenodd" clip-rule="evenodd" d="M8 21.97C8 18.6097 8 16.9295 8.65396 15.646C9.2292 14.5171 10.1471 13.5992 11.2761 13.024C12.5595 12.37 14.2397 12.37 17.6 12.37H22.4C25.7603 12.37 27.4405 12.37 28.7239 13.024C29.8529 13.5992 30.7708 14.5171 31.346 15.646C32 16.9295 32 18.6097 32 21.97C32 25.3303 32 27.0105 31.346 28.2939C30.7708 29.4229 29.8529 30.3408 28.7239 30.916C27.4405 31.57 25.7603 31.57 22.4 31.57H17.6C14.2397 31.57 12.5595 31.57 11.2761 30.916C10.1471 30.3408 9.2292 29.4229 8.65396 28.2939C8 27.0105 8 25.3303 8 21.97ZM30.9261 19.0586C30.9262 19.0585 30.9262 19.0585 30.8 18.37L30.9262 19.0585C31.3065 18.9888 31.5582 18.624 31.4885 18.2438C31.4188 17.8635 31.054 17.6118 30.6738 17.6815L30.6736 17.6815L30.6729 17.6816L30.6696 17.6822L30.6561 17.6847L30.6018 17.6945C30.5537 17.7031 30.4823 17.7158 30.3896 17.7321C30.2043 17.7645 29.9342 17.811 29.5966 17.8669C28.9211 17.9786 27.9763 18.1276 26.8997 18.2766L26.7 18.304V17.17C26.7 16.7834 26.3866 16.47 26 16.47C25.6134 16.47 25.3 16.7834 25.3 17.17V18.4838C23.5144 18.6983 21.5869 18.87 20 18.87C18.4131 18.87 16.4856 18.6983 14.7 18.4838V17.17C14.7 16.7834 14.3866 16.47 14 16.47C13.6134 16.47 13.3 16.7834 13.3 17.17V18.304L13.1003 18.2766C12.0237 18.1276 11.0788 17.9786 10.4034 17.8669C10.0657 17.811 9.79564 17.7645 9.61033 17.7321C9.51769 17.7158 9.44625 17.7031 9.39817 17.6945L9.34386 17.6847L9.33036 17.6822L9.32711 17.6816L9.32637 17.6815L9.32622 17.6815C8.94596 17.6118 8.58118 17.8635 8.51146 18.2438C8.44174 18.624 8.69349 18.9888 9.07375 19.0585L9.19999 18.37C9.07375 19.0585 9.07381 19.0585 9.0739 19.0586L9.0742 19.0586L9.07525 19.0588L9.07914 19.0595L9.09392 19.0622L9.15088 19.0725C9.20076 19.0814 9.2741 19.0945 9.36872 19.1111C9.55796 19.1442 9.83245 19.1915 10.1749 19.2481C10.8596 19.3614 11.8169 19.5124 12.9084 19.6634C13.037 19.6812 13.1677 19.699 13.3 19.7168L13.3 20.77C13.3 21.1566 13.6134 21.47 14 21.47C14.3866 21.47 14.7 21.1566 14.7 20.77V19.8937C16.4697 20.1026 18.3885 20.27 20 20.27C21.6114 20.27 23.5303 20.1026 25.3 19.8937V20.77C25.3 21.1566 25.6134 21.47 26 21.47C26.3866 21.47 26.7 21.1566 26.7 20.77V19.7168C26.8323 19.699 26.9629 19.6812 27.0916 19.6634C28.1831 19.5124 29.1404 19.3614 29.8251 19.2481C30.1675 19.1915 30.442 19.1442 30.6313 19.1111C30.7259 19.0945 30.7992 19.0814 30.8491 19.0725L30.9061 19.0622L30.9208 19.0595L30.9247 19.0588L30.9258 19.0586L30.9261 19.0586ZM21.2 25.67C21.5866 25.67 21.9 25.3566 21.9 24.97C21.9 24.5834 21.5866 24.27 21.2 24.27H20H18.8C18.4134 24.27 18.1 24.5834 18.1 24.97C18.1 25.3566 18.4134 25.67 18.8 25.67H20H21.2Z"/>
</mask>
<path fill-rule="evenodd" clip-rule="evenodd" d="M8 21.97C8 18.6097 8 16.9295 8.65396 15.646C9.2292 14.5171 10.1471 13.5992 11.2761 13.024C12.5595 12.37 14.2397 12.37 17.6 12.37H22.4C25.7603 12.37 27.4405 12.37 28.7239 13.024C29.8529 13.5992 30.7708 14.5171 31.346 15.646C32 16.9295 32 18.6097 32 21.97C32 25.3303 32 27.0105 31.346 28.2939C30.7708 29.4229 29.8529 30.3408 28.7239 30.916C27.4405 31.57 25.7603 31.57 22.4 31.57H17.6C14.2397 31.57 12.5595 31.57 11.2761 30.916C10.1471 30.3408 9.2292 29.4229 8.65396 28.2939C8 27.0105 8 25.3303 8 21.97ZM30.9261 19.0586C30.9262 19.0585 30.9262 19.0585 30.8 18.37L30.9262 19.0585C31.3065 18.9888 31.5582 18.624 31.4885 18.2438C31.4188 17.8635 31.054 17.6118 30.6738 17.6815L30.6736 17.6815L30.6729 17.6816L30.6696 17.6822L30.6561 17.6847L30.6018 17.6945C30.5537 17.7031 30.4823 17.7158 30.3896 17.7321C30.2043 17.7645 29.9342 17.811 29.5966 17.8669C28.9211 17.9786 27.9763 18.1276 26.8997 18.2766L26.7 18.304V17.17C26.7 16.7834 26.3866 16.47 26 16.47C25.6134 16.47 25.3 16.7834 25.3 17.17V18.4838C23.5144 18.6983 21.5869 18.87 20 18.87C18.4131 18.87 16.4856 18.6983 14.7 18.4838V17.17C14.7 16.7834 14.3866 16.47 14 16.47C13.6134 16.47 13.3 16.7834 13.3 17.17V18.304L13.1003 18.2766C12.0237 18.1276 11.0788 17.9786 10.4034 17.8669C10.0657 17.811 9.79564 17.7645 9.61033 17.7321C9.51769 17.7158 9.44625 17.7031 9.39817 17.6945L9.34386 17.6847L9.33036 17.6822L9.32711 17.6816L9.32637 17.6815L9.32622 17.6815C8.94596 17.6118 8.58118 17.8635 8.51146 18.2438C8.44174 18.624 8.69349 18.9888 9.07375 19.0585L9.19999 18.37C9.07375 19.0585 9.07381 19.0585 9.0739 19.0586L9.0742 19.0586L9.07525 19.0588L9.07914 19.0595L9.09392 19.0622L9.15088 19.0725C9.20076 19.0814 9.2741 19.0945 9.36872 19.1111C9.55796 19.1442 9.83245 19.1915 10.1749 19.2481C10.8596 19.3614 11.8169 19.5124 12.9084 19.6634C13.037 19.6812 13.1677 19.699 13.3 19.7168L13.3 20.77C13.3 21.1566 13.6134 21.47 14 21.47C14.3866 21.47 14.7 21.1566 14.7 20.77V19.8937C16.4697 20.1026 18.3885 20.27 20 20.27C21.6114 20.27 23.5303 20.1026 25.3 19.8937V20.77C25.3 21.1566 25.6134 21.47 26 21.47C26.3866 21.47 26.7 21.1566 26.7 20.77V19.7168C26.8323 19.699 26.9629 19.6812 27.0916 19.6634C28.1831 19.5124 29.1404 19.3614 29.8251 19.2481C30.1675 19.1915 30.442 19.1442 30.6313 19.1111C30.7259 19.0945 30.7992 19.0814 30.8491 19.0725L30.9061 19.0622L30.9208 19.0595L30.9247 19.0588L30.9258 19.0586L30.9261 19.0586ZM21.2 25.67C21.5866 25.67 21.9 25.3566 21.9 24.97C21.9 24.5834 21.5866 24.27 21.2 24.27H20H18.8C18.4134 24.27 18.1 24.5834 18.1 24.97C18.1 25.3566 18.4134 25.67 18.8 25.67H20H21.2Z" fill="#FF9142"/>
<path d="M29.9852 17.8077L30.1115 18.4962L31.4885 18.2438L31.3623 17.5552L29.9852 17.8077ZM8.65396 15.646L7.40655 15.0105L7.40655 15.0105L8.65396 15.646ZM11.2761 13.024L10.6405 11.7765L10.6405 11.7765L11.2761 13.024ZM28.7239 13.024L28.0884 14.2714V14.2714L28.7239 13.024ZM31.346 15.646L30.0986 16.2816L30.0986 16.2816L31.346 15.646ZM31.346 28.2939L30.0986 27.6584L30.0986 27.6584L31.346 28.2939ZM28.7239 30.916L28.0884 29.6686L28.0884 29.6686L28.7239 30.916ZM11.2761 30.916L11.9116 29.6686L11.9116 29.6686L11.2761 30.916ZM8.65396 28.2939L9.90137 27.6584L9.90137 27.6584L8.65396 28.2939ZM30.9261 19.0586L30.6769 17.6809L30.6733 17.6816L30.9261 19.0586ZM30.9262 19.0585L29.5492 19.311L29.8017 20.6881L31.1787 20.4356L30.9262 19.0585ZM31.4885 18.2438L30.1115 18.4962V18.4962L31.4885 18.2438ZM30.6738 17.6815L30.9242 19.0589L30.9262 19.0585L30.6738 17.6815ZM30.6736 17.6815L30.4232 16.3041L30.4216 16.3044L30.6736 17.6815ZM30.6729 17.6816L30.9244 19.0589L30.9249 19.0588L30.6729 17.6816ZM30.6696 17.6822L30.9201 19.0596L30.9212 19.0595L30.6696 17.6822ZM30.6561 17.6847L30.9046 19.0625L30.9066 19.0621L30.6561 17.6847ZM30.6018 17.6945L30.8491 19.0725L30.8503 19.0723L30.6018 17.6945ZM30.3896 17.7321L30.148 16.3531L30.148 16.3531L30.3896 17.7321ZM29.5966 17.8669L29.8251 19.2481L29.8251 19.2481L29.5966 17.8669ZM26.8997 18.2766L27.0901 19.6636L27.0916 19.6634L26.8997 18.2766ZM26.7 18.304H25.3V19.9094L26.8904 19.691L26.7 18.304ZM26.7 17.17H28.1V17.17L26.7 17.17ZM25.3 18.4838L25.467 19.8738L26.7 19.7257V18.4838H25.3ZM14.7 18.4838H13.3V19.7257L14.533 19.8738L14.7 18.4838ZM13.3 18.304L13.1096 19.691L14.7 19.9094V18.304H13.3ZM13.1003 18.2766L12.9084 19.6634L12.9099 19.6636L13.1003 18.2766ZM10.4034 17.8669L10.1749 19.2481L10.1749 19.2481L10.4034 17.8669ZM9.61033 17.7321L9.36872 19.1111L9.36872 19.1111L9.61033 17.7321ZM9.39817 17.6945L9.14969 19.0723L9.15087 19.0725L9.39817 17.6945ZM9.34386 17.6847L9.09338 19.0621L9.09538 19.0625L9.34386 17.6847ZM9.33036 17.6822L9.07894 19.0595L9.07988 19.0596L9.33036 17.6822ZM9.32711 17.6816L9.07448 19.0587L9.07569 19.0589L9.32711 17.6816ZM9.32637 17.6815L9.579 16.3045L9.57681 16.3041L9.32637 17.6815ZM9.32622 17.6815L9.07374 19.0585L9.07578 19.0589L9.32622 17.6815ZM8.51146 18.2438L9.88851 18.4962L9.88851 18.4962L8.51146 18.2438ZM9.07375 19.0585L8.82127 20.4356L10.1983 20.6881L10.4508 19.311L9.07375 19.0585ZM9.0739 19.0586L9.32664 17.6816L9.32305 17.6809L9.0739 19.0586ZM9.0742 19.0586L8.82146 20.4356L8.82239 20.4358L9.0742 19.0586ZM9.07525 19.0588L8.82344 20.436L8.82367 20.436L9.07525 19.0588ZM9.07914 19.0595L8.82755 20.4367L8.82865 20.4369L9.07914 19.0595ZM9.09392 19.0622L8.84343 20.4396L8.84544 20.44L9.09392 19.0622ZM9.15088 19.0725L8.9024 20.4502L8.9036 20.4505L9.15088 19.0725ZM9.36872 19.1111L9.61034 17.7321L9.61033 17.7321L9.36872 19.1111ZM10.1749 19.2481L10.4034 17.8669H10.4034L10.1749 19.2481ZM12.9084 19.6634L12.7165 21.0502L12.7165 21.0502L12.9084 19.6634ZM13.3 19.7168L14.7 19.7168L14.7 18.4922L13.4863 18.3292L13.3 19.7168ZM13.3 20.77H14.7V20.77L13.3 20.77ZM14.7 19.8937L14.8641 18.5034L13.3 18.3187V19.8937H14.7ZM25.3 19.8937H26.7V18.3187L25.1359 18.5033L25.3 19.8937ZM26.7 19.7168L26.5137 18.3292L25.3 18.4922V19.7168H26.7ZM27.0916 19.6634L26.8997 18.2766H26.8997L27.0916 19.6634ZM29.8251 19.2481L30.0536 20.6294L29.8251 19.2481ZM30.6313 19.1111L30.3896 17.7321L30.3896 17.7321L30.6313 19.1111ZM30.8491 19.0725L31.0964 20.4505L31.0976 20.4502L30.8491 19.0725ZM30.9061 19.0622L31.1545 20.44L31.1565 20.4396L30.9061 19.0622ZM30.9208 19.0595L31.1713 20.4369L31.1725 20.4367L30.9208 19.0595ZM30.9247 19.0588L30.6733 17.6816L30.673 17.6816L30.9247 19.0588ZM30.9258 19.0586L31.1771 20.4359L31.1785 20.4356L30.9258 19.0586ZM7.40655 15.0105C6.96225 15.8825 6.77521 16.8281 6.68639 17.9152C6.59891 18.9859 6.6 20.3129 6.6 21.97H9.4C9.4 20.2667 9.40109 19.0735 9.4771 18.1432C9.55177 17.2293 9.69171 16.6931 9.90137 16.2816L7.40655 15.0105ZM10.6405 11.7765C9.24807 12.486 8.11602 13.6181 7.40655 15.0105L9.90137 16.2816C10.3424 15.4161 11.0461 14.7124 11.9116 14.2714L10.6405 11.7765ZM17.6 10.97C15.9429 10.97 14.616 10.9689 13.5452 11.0564C12.4581 11.1452 11.5125 11.3322 10.6405 11.7765L11.9116 14.2714C12.3231 14.0617 12.8593 13.9218 13.7732 13.8471C14.7035 13.7711 15.8967 13.77 17.6 13.77V10.97ZM22.4 10.97H17.6V13.77H22.4V10.97ZM29.3595 11.7765C28.4875 11.3322 27.5419 11.1452 26.4548 11.0564C25.384 10.9689 24.0571 10.97 22.4 10.97V13.77C24.1033 13.77 25.2965 13.7711 26.2268 13.8471C27.1407 13.9218 27.6769 14.0617 28.0884 14.2714L29.3595 11.7765ZM32.5934 15.0105C31.884 13.6181 30.7519 12.486 29.3595 11.7765L28.0884 14.2714C28.9539 14.7124 29.6576 15.4161 30.0986 16.2816L32.5934 15.0105ZM33.4 21.97C33.4 20.3129 33.4011 18.9859 33.3136 17.9152C33.2248 16.8281 33.0377 15.8825 32.5934 15.0105L30.0986 16.2816C30.3083 16.6931 30.4482 17.2293 30.5229 18.1432C30.5989 19.0735 30.6 20.2667 30.6 21.97H33.4ZM32.5934 28.9295C33.0377 28.0575 33.2248 27.1119 33.3136 26.0248C33.4011 24.954 33.4 23.6271 33.4 21.97H30.6C30.6 23.6733 30.5989 24.8665 30.5229 25.7968C30.4482 26.7107 30.3083 27.2469 30.0986 27.6584L32.5934 28.9295ZM29.3595 32.1634C30.7519 31.454 31.884 30.3219 32.5934 28.9295L30.0986 27.6584C29.6576 28.5239 28.9539 29.2276 28.0884 29.6686L29.3595 32.1634ZM22.4 32.97C24.0571 32.97 25.384 32.9711 26.4548 32.8836C27.5419 32.7948 28.4875 32.6077 29.3595 32.1634L28.0884 29.6686C27.6769 29.8783 27.1407 30.0182 26.2268 30.0929C25.2965 30.1689 24.1033 30.17 22.4 30.17V32.97ZM17.6 32.97H22.4V30.17H17.6V32.97ZM10.6405 32.1634C11.5125 32.6077 12.4581 32.7948 13.5452 32.8836C14.616 32.9711 15.9429 32.97 17.6 32.97V30.17C15.8967 30.17 14.7035 30.1689 13.7732 30.0929C12.8593 30.0182 12.3231 29.8783 11.9116 29.6686L10.6405 32.1634ZM7.40655 28.9295C8.11602 30.3219 9.24807 31.454 10.6405 32.1634L11.9116 29.6686C11.0461 29.2276 10.3424 28.5239 9.90137 27.6584L7.40655 28.9295ZM6.6 21.97C6.6 23.6271 6.59891 24.954 6.68639 26.0248C6.77521 27.1119 6.96225 28.0575 7.40655 28.9295L9.90137 27.6584C9.69171 27.2469 9.55177 26.7107 9.4771 25.7968C9.40109 24.8665 9.4 23.6733 9.4 21.97H6.6ZM29.4229 18.6225C29.4861 18.9668 29.5176 19.1387 29.5333 19.2245C29.5412 19.2677 29.5449 19.2883 29.5467 19.2979C29.5478 19.3039 29.5475 19.3025 29.5469 19.2991C29.5467 19.298 29.5462 19.2951 29.5456 19.2913C29.5452 19.2888 29.5435 19.2791 29.5416 19.2667C29.5407 19.2605 29.5388 19.2477 29.5368 19.2314C29.5354 19.2206 29.5305 19.1811 29.5279 19.1303C29.5266 19.1049 29.5246 19.0545 29.5277 18.991C29.5302 18.9401 29.5386 18.8036 29.5907 18.6381C29.6481 18.456 29.7868 18.1516 30.1129 17.9189C30.265 17.8104 30.4112 17.7519 30.5177 17.7194C30.557 17.7081 30.6165 17.6932 30.6366 17.6888C30.6567 17.6847 30.6769 17.6809 30.6769 17.6809L31.1752 20.4362C31.1752 20.4362 31.1954 20.4324 31.2156 20.4283C31.2356 20.4239 31.2952 20.409 31.3344 20.3977C31.441 20.3652 31.5872 20.3067 31.7393 20.1982C32.0653 19.9655 32.2041 19.6612 32.2615 19.479C32.3136 19.3135 32.322 19.177 32.3244 19.126C32.3275 19.0625 32.3255 19.0122 32.3242 18.9868C32.3216 18.9359 32.3167 18.8965 32.3153 18.8855C32.3133 18.8692 32.3114 18.8564 32.3105 18.8501C32.3086 18.8375 32.3069 18.8275 32.3064 18.8247C32.3057 18.8205 32.3051 18.8171 32.3048 18.8153C32.3037 18.8092 32.3025 18.8025 32.3016 18.7977C32.2995 18.7858 32.2954 18.7633 32.2875 18.7204C32.2717 18.6341 32.2401 18.4617 32.177 18.1175L29.4229 18.6225ZM32.3033 18.8061L32.177 18.1175L29.4229 18.6225L29.5492 19.311L32.3033 18.8061ZM30.1115 18.4962C30.0417 18.116 30.2935 17.7512 30.6737 17.6815L31.1787 20.4356C32.3195 20.2264 33.0747 19.1321 32.8656 17.9913L30.1115 18.4962ZM30.9262 19.0585C30.546 19.1282 30.1812 18.8765 30.1115 18.4962L32.8656 17.9913C32.6564 16.8505 31.5621 16.0953 30.4213 16.3044L30.9262 19.0585ZM30.924 19.0589L30.9242 19.0589L30.4233 16.3041L30.4232 16.3041L30.924 19.0589ZM30.9249 19.0588L30.9256 19.0586L30.4216 16.3044L30.4209 16.3045L30.9249 19.0588ZM30.9212 19.0595L30.9244 19.0589L30.4213 16.3044L30.4181 16.305L30.9212 19.0595ZM30.9066 19.0621L30.9201 19.0596L30.4191 16.3048L30.4056 16.3073L30.9066 19.0621ZM30.8503 19.0723L30.9046 19.0625L30.4076 16.3069L30.3533 16.3167L30.8503 19.0723ZM30.6312 19.1111C30.7259 19.0945 30.7992 19.0814 30.8491 19.0725L30.3545 16.3165C30.3082 16.3248 30.2387 16.3372 30.148 16.3531L30.6312 19.1111ZM29.8251 19.2481C30.1675 19.1915 30.442 19.1442 30.6313 19.1111L30.148 16.3531C29.9667 16.3849 29.701 16.4306 29.3681 16.4857L29.8251 19.2481ZM27.0916 19.6634C28.1831 19.5124 29.1404 19.3614 29.8251 19.2481L29.3681 16.4857C28.7019 16.5959 27.7695 16.7429 26.7078 16.8898L27.0916 19.6634ZM26.8904 19.691L27.0901 19.6636L26.7092 16.8896L26.5096 16.917L26.8904 19.691ZM25.3 17.17V18.304H28.1V17.17H25.3ZM26 17.87C25.6134 17.87 25.3 17.5566 25.3 17.17L28.1 17.17C28.1 16.0102 27.1598 15.07 26 15.07V17.87ZM26.7 17.17C26.7 17.5566 26.3866 17.87 26 17.87V15.07C24.8402 15.07 23.9 16.0102 23.9 17.17H26.7ZM26.7 18.4838V17.17H23.9V18.4838H26.7ZM20 20.27C21.6703 20.27 23.6626 20.0905 25.467 19.8738L25.133 17.0938C23.3661 17.306 21.5034 17.47 20 17.47V20.27ZM14.533 19.8738C16.3374 20.0905 18.3297 20.27 20 20.27V17.47C18.4966 17.47 16.6339 17.306 14.867 17.0938L14.533 19.8738ZM13.3 17.17V18.4838H16.1V17.17H13.3ZM14 17.87C13.6134 17.87 13.3 17.5566 13.3 17.17H16.1C16.1 16.0102 15.1598 15.07 14 15.07V17.87ZM14.7 17.17C14.7 17.5566 14.3866 17.87 14 17.87V15.07C12.8402 15.07 11.9 16.0102 11.9 17.17H14.7ZM14.7 18.304V17.17H11.9V18.304H14.7ZM12.9099 19.6636L13.1096 19.691L13.4904 16.917L13.2908 16.8896L12.9099 19.6636ZM10.1749 19.2481C10.8596 19.3614 11.8169 19.5124 12.9084 19.6634L13.2922 16.8898C12.2304 16.7429 11.2981 16.5959 10.6319 16.4857L10.1749 19.2481ZM9.36872 19.1111C9.55796 19.1442 9.83245 19.1915 10.1749 19.2481L10.6319 16.4857C10.299 16.4306 10.0333 16.3849 9.85195 16.3531L9.36872 19.1111ZM9.15087 19.0725C9.20076 19.0814 9.2741 19.0945 9.36872 19.1111L9.85195 16.3531C9.76128 16.3372 9.69173 16.3248 9.64548 16.3165L9.15087 19.0725ZM9.09538 19.0625L9.14969 19.0723L9.64666 16.3167L9.59235 16.3069L9.09538 19.0625ZM9.07988 19.0596L9.09338 19.0621L9.59434 16.3073L9.58084 16.3048L9.07988 19.0596ZM9.07569 19.0589L9.07894 19.0595L9.58178 16.305L9.57852 16.3044L9.07569 19.0589ZM9.07374 19.0585L9.07448 19.0587L9.57974 16.3046L9.579 16.3045L9.07374 19.0585ZM9.07578 19.0589L9.07593 19.0589L9.57681 16.3041L9.57666 16.3041L9.07578 19.0589ZM9.88851 18.4962C9.81879 18.8765 9.45401 19.1283 9.07374 19.0585L9.5787 16.3044C8.43792 16.0953 7.34357 16.8505 7.13442 17.9913L9.88851 18.4962ZM9.32623 17.6815C9.70648 17.7512 9.95823 18.116 9.88851 18.4962L7.13442 17.9913C6.92526 19.1321 7.6805 20.2264 8.82127 20.4356L9.32623 17.6815ZM7.82294 18.1175L7.6967 18.8061L10.4508 19.311L10.577 18.6225L7.82294 18.1175ZM9.32305 17.6809C9.32306 17.6809 9.34326 17.6847 9.36339 17.6888C9.38345 17.6932 9.443 17.7081 9.48225 17.7194C9.58882 17.7519 9.73499 17.8104 9.88708 17.9189C10.2132 18.1516 10.3519 18.456 10.4093 18.6381C10.4614 18.8036 10.4698 18.9401 10.4723 18.991C10.4753 19.0545 10.4734 19.1049 10.4721 19.1303C10.4694 19.1811 10.4645 19.2206 10.4632 19.2314C10.4612 19.2477 10.4593 19.2605 10.4583 19.2667C10.4565 19.2791 10.4548 19.2888 10.4544 19.2913C10.4538 19.2951 10.4533 19.298 10.4531 19.2991C10.4525 19.3025 10.4522 19.3039 10.4533 19.2979C10.455 19.2883 10.4588 19.2677 10.4667 19.2245C10.4824 19.1387 10.5139 18.9668 10.577 18.6225L7.82294 18.1175C7.75983 18.4617 7.72825 18.6341 7.71245 18.7204C7.7046 18.7633 7.70049 18.7858 7.69833 18.7977C7.69747 18.8025 7.69625 18.8092 7.69518 18.8153C7.69485 18.8171 7.69426 18.8205 7.69355 18.8247C7.69308 18.8275 7.6914 18.8375 7.68949 18.8501C7.68856 18.8564 7.68666 18.8692 7.68463 18.8855C7.68327 18.8965 7.67835 18.9359 7.67574 18.9868C7.67443 19.0122 7.67246 19.0625 7.67553 19.126C7.67799 19.177 7.68641 19.3135 7.73851 19.479C7.79587 19.6612 7.93464 19.9655 8.26072 20.1982C8.41281 20.3067 8.55898 20.3652 8.66556 20.3977C8.7048 20.409 8.76435 20.4239 8.78441 20.4283C8.80455 20.4324 8.82474 20.4362 8.82475 20.4362L9.32305 17.6809ZM9.32694 17.6816L9.32664 17.6816L8.82116 20.4356L8.82146 20.4356L9.32694 17.6816ZM9.32707 17.6816L9.32602 17.6814L8.82239 20.4358L8.82344 20.436L9.32707 17.6816ZM9.33072 17.6823L9.32684 17.6816L8.82367 20.436L8.82755 20.4367L9.33072 17.6823ZM9.34441 17.6848L9.32963 17.6821L8.82865 20.4369L8.84343 20.4396L9.34441 17.6848ZM9.39937 17.6947L9.34241 17.6844L8.84544 20.44L8.9024 20.4502L9.39937 17.6947ZM9.61033 17.7321C9.51769 17.7158 9.44625 17.7031 9.39817 17.6945L8.9036 20.4505C8.95528 20.4597 9.03051 20.4731 9.12712 20.4901L9.61033 17.7321ZM10.4034 17.8669C10.0657 17.811 9.79565 17.7645 9.61034 17.7321L9.12711 20.4901C9.32028 20.5239 9.59916 20.5719 9.9464 20.6294L10.4034 17.8669ZM13.1003 18.2766C12.0237 18.1276 11.0788 17.9786 10.4034 17.8669L9.9464 20.6294C10.6403 20.7441 11.6102 20.8971 12.7165 21.0502L13.1003 18.2766ZM13.4863 18.3292C13.3559 18.3117 13.2271 18.2942 13.1003 18.2766L12.7165 21.0502C12.847 21.0682 12.9794 21.0863 13.1137 21.1043L13.4863 18.3292ZM14.7 20.77L14.7 19.7168L11.9 19.7168L11.9 20.77L14.7 20.77ZM14 20.07C14.3866 20.07 14.7 20.3834 14.7 20.77H11.9C11.9 21.9298 12.8402 22.87 14 22.87V20.07ZM13.3 20.77C13.3 20.3834 13.6134 20.07 14 20.07V22.87C15.1598 22.87 16.1 21.9298 16.1 20.77H13.3ZM13.3 19.8937V20.77H16.1V19.8937H13.3ZM20 18.87C18.4698 18.87 16.6141 18.7099 14.8641 18.5034L14.5359 21.284C16.3253 21.4953 18.3073 21.67 20 21.67V18.87ZM25.1359 18.5033C23.3858 18.7099 21.5302 18.87 20 18.87V21.67C21.6927 21.67 23.6747 21.4953 25.4641 21.284L25.1359 18.5033ZM26.7 20.77V19.8937H23.9V20.77H26.7ZM26 20.07C26.3866 20.07 26.7 20.3834 26.7 20.77H23.9C23.9 21.9298 24.8402 22.87 26 22.87V20.07ZM25.3 20.77C25.3 20.3834 25.6134 20.07 26 20.07V22.87C27.1598 22.87 28.1 21.9298 28.1 20.77H25.3ZM25.3 19.7168V20.77H28.1V19.7168H25.3ZM26.8997 18.2766C26.7729 18.2942 26.6441 18.3117 26.5137 18.3292L26.8863 21.1043C27.0206 21.0863 27.153 21.0682 27.2834 21.0502L26.8997 18.2766ZM29.5966 17.8669C28.9211 17.9786 27.9763 18.1276 26.8997 18.2766L27.2834 21.0502C28.3898 20.8971 29.3597 20.7441 30.0536 20.6294L29.5966 17.8669ZM30.3896 17.7321C30.2043 17.7645 29.9342 17.811 29.5966 17.8669L30.0536 20.6294C30.4008 20.5719 30.6797 20.5239 30.8729 20.4901L30.3896 17.7321ZM30.6018 17.6945C30.5537 17.7031 30.4823 17.7158 30.3896 17.7321L30.8729 20.4901C30.9695 20.4731 31.0447 20.4597 31.0964 20.4505L30.6018 17.6945ZM30.6576 17.6844L30.6006 17.6947L31.0976 20.4502L31.1545 20.44L30.6576 17.6844ZM30.6704 17.6821L30.6556 17.6848L31.1565 20.4396L31.1713 20.4369L30.6704 17.6821ZM30.673 17.6816L30.6691 17.6823L31.1725 20.4367L31.1764 20.436L30.673 17.6816ZM30.6744 17.6814L30.6733 17.6816L31.1761 20.4361L31.1771 20.4359L30.6744 17.6814ZM30.6733 17.6816L30.673 17.6816L31.1785 20.4356L31.1788 20.4356L30.6733 17.6816ZM20.5 24.97C20.5 24.5834 20.8134 24.27 21.2 24.27V27.07C22.3598 27.07 23.3 26.1298 23.3 24.97H20.5ZM21.2 25.67C20.8134 25.67 20.5 25.3566 20.5 24.97H23.3C23.3 23.8102 22.3598 22.87 21.2 22.87V25.67ZM20 25.67H21.2V22.87H20V25.67ZM18.8 25.67H20V22.87H18.8V25.67ZM19.5 24.97C19.5 25.3566 19.1866 25.67 18.8 25.67V22.87C17.6402 22.87 16.7 23.8102 16.7 24.97H19.5ZM18.8 24.27C19.1866 24.27 19.5 24.5834 19.5 24.97H16.7C16.7 26.1298 17.6402 27.07 18.8 27.07V24.27ZM20 24.27H18.8V27.07H20V24.27ZM21.2 24.27H20V27.07H21.2V24.27Z" fill="#FF9142" mask="url(#path-2-inside-1_49_1482)"/>
<path d="M15.8 12.97C15.8 12.97 15.8 9.13 20 9.13C24.2 9.13 24.2 12.97 24.2 12.97" stroke="#FF9142" stroke-width="1.4" stroke-linecap="round"/>
</svg>
