<svg width="16" height="18" viewBox="0 0 16 18" fill="none" xmlns="http://www.w3.org/2000/svg">
<path d="M2.3125 5.25L2.60207 12.7787C2.68467 14.9265 4.44852 16.625 6.59784 16.625C7.47467 16.625 8.43416 16.625 9.40083 16.625C11.5502 16.625 13.3153 14.9265 13.3979 12.7787L13.6875 5.25" stroke="#B50505" stroke-width="1.4" stroke-linecap="round"/>
<path d="M5.375 2.55049L6.25 2.55049C6.25 2.55049 6.55202 1.06273 8 1.06272C9.44798 1.06272 9.75001 2.5505 9.75001 2.5505L10.625 2.5505" stroke="#B50505" stroke-width="1.4" stroke-linecap="round"/>
<path d="M9.75001 10.5V12.25" stroke="#B50505" stroke-width="1.4" stroke-linecap="round"/>
<path d="M6.24999 10.5V12.25" stroke="#B50505" stroke-width="1.4" stroke-linecap="round"/>
<path d="M15 3.23743L14.2761 3.17409C10.1 2.80867 5.89998 2.80867 1.72387 3.17409L1 3.23743" stroke="#B50505" stroke-width="1.4" stroke-linecap="round"/>
</svg>
