<svg width="22" height="22" viewBox="0 0 22 22" fill="none" xmlns="http://www.w3.org/2000/svg">
<path d="M1.39209 14.3884L0.661905 14.5597L1.39209 14.3884ZM1.39209 7.61159L0.661905 7.44031L1.39209 7.61159ZM20.6079 7.6116L19.8777 7.78287L20.6079 7.6116ZM20.6079 14.3884L19.8777 14.2171L20.6079 14.3884ZM14.3884 20.6079L14.2171 19.8777L14.2171 19.8777L14.3884 20.6079ZM7.61159 20.6079L7.78287 19.8777L7.61159 20.6079ZM7.61159 1.39209L7.78287 2.12227L7.61159 1.39209ZM14.3884 1.39208L14.2171 2.12227L14.3884 1.39208ZM6.32897 7.58002C6.03607 7.28713 5.5612 7.28713 5.26831 7.58002C4.97541 7.87292 4.97541 8.34779 5.2683 8.64068L6.32897 7.58002ZM6.95449 9.26621L6.42416 9.79654C6.56482 9.93719 6.75558 10.0162 6.95449 10.0162C7.15341 10.0162 7.34417 9.93719 7.48482 9.79654L6.95449 9.26621ZM9.79654 7.48482C10.0894 7.19193 10.0894 6.71706 9.79654 6.42416C9.50365 6.13127 9.02877 6.13127 8.73588 6.42416L9.79654 7.48482ZM12.1559 7.93828C11.7416 7.93828 11.4059 8.27407 11.4059 8.68828C11.4059 9.1025 11.7416 9.43828 12.1559 9.43828V7.93828ZM16.2014 9.43828C16.6156 9.43828 16.9514 9.1025 16.9514 8.68828C16.9514 8.27407 16.6156 7.93828 16.2014 7.93828V9.43828ZM6.32897 13.3593C6.03607 13.0664 5.5612 13.0664 5.26831 13.3593C4.97541 13.6522 4.97541 14.1271 5.2683 14.42L6.32897 13.3593ZM6.95449 15.0455L6.42416 15.5758C6.56482 15.7165 6.75558 15.7955 6.95449 15.7955C7.15341 15.7955 7.34417 15.7165 7.48482 15.5758L6.95449 15.0455ZM9.79654 13.2641C10.0894 12.9712 10.0894 12.4964 9.79654 12.2035C9.50365 11.9106 9.02877 11.9106 8.73588 12.2035L9.79654 13.2641ZM12.1559 13.7176C11.7416 13.7176 11.4059 14.0534 11.4059 14.4676C11.4059 14.8818 11.7416 15.2176 12.1559 15.2176V13.7176ZM16.2014 15.2176C16.6156 15.2176 16.9514 14.8818 16.9514 14.4676C16.9514 14.0534 16.6156 13.7176 16.2014 13.7176V15.2176ZM2.12227 14.2171C1.62591 12.1011 1.62591 9.89891 2.12227 7.78287L0.661905 7.44031C0.112698 9.78166 0.112698 12.2183 0.661905 14.5597L2.12227 14.2171ZM19.8777 7.78287C20.3741 9.89891 20.3741 12.1011 19.8777 14.2171L21.3381 14.5597C21.8873 12.2183 21.8873 9.78166 21.3381 7.44032L19.8777 7.78287ZM14.2171 19.8777C12.1011 20.3741 9.89891 20.3741 7.78287 19.8777L7.44032 21.3381C9.78166 21.8873 12.2183 21.8873 14.5597 21.3381L14.2171 19.8777ZM7.78287 2.12227C9.89891 1.62591 12.1011 1.62591 14.2171 2.12227L14.5597 0.661904C12.2183 0.112698 9.78166 0.112699 7.44032 0.661904L7.78287 2.12227ZM7.78287 19.8777C4.97416 19.2189 2.7811 17.0258 2.12227 14.2171L0.661905 14.5597C1.45084 17.923 4.07697 20.5492 7.44032 21.3381L7.78287 19.8777ZM14.5597 21.3381C17.923 20.5492 20.5492 17.923 21.3381 14.5597L19.8777 14.2171C19.2189 17.0258 17.0258 19.2189 14.2171 19.8777L14.5597 21.3381ZM14.2171 2.12227C17.0258 2.7811 19.2189 4.97416 19.8777 7.78287L21.3381 7.44032C20.5492 4.07697 17.923 1.45084 14.5597 0.661904L14.2171 2.12227ZM7.44032 0.661904C4.07697 1.45084 1.45084 4.07697 0.661905 7.44031L2.12227 7.78287C2.7811 4.97416 4.97416 2.7811 7.78287 2.12227L7.44032 0.661904ZM5.2683 8.64068L6.42416 9.79654L7.48482 8.73588L6.32897 7.58002L5.2683 8.64068ZM7.48482 9.79654L9.79654 7.48482L8.73588 6.42416L6.42416 8.73588L7.48482 9.79654ZM5.2683 14.42L6.42416 15.5758L7.48482 14.5152L6.32897 13.3593L5.2683 14.42ZM7.48482 15.5758L9.79654 13.2641L8.73588 12.2035L6.42416 14.5152L7.48482 15.5758ZM12.1559 15.2176H16.2014V13.7176H12.1559V15.2176ZM12.1559 9.43828H14.1786V7.93828H12.1559V9.43828ZM14.1786 9.43828H16.2014V7.93828H14.1786V9.43828Z" fill="#F7C90D"/>
</svg>
