<svg width="17" height="22" viewBox="0 0 17 22" fill="none" xmlns="http://www.w3.org/2000/svg">
<path d="M1.29344 16.8918C1.3562 16.0131 1.38759 15.5737 1.48173 15.2582C1.83189 14.0846 2.7062 13.3273 3.91772 13.1482C4.24347 13.1 4.72945 13.135 5.70141 13.205C6.5896 13.2689 7.53094 13.3137 8.42616 13.3137C9.44399 13.3137 10.568 13.2558 11.622 13.1777C12.5771 13.1069 13.0546 13.0715 13.3923 13.1235C14.5731 13.3053 15.4525 14.0654 15.8034 15.2075C15.9037 15.534 15.9353 15.976 15.9984 16.8598V16.8598C16.0595 17.7146 16.09 18.142 16.0313 18.4938C15.8332 19.6806 14.9453 20.6342 13.7756 20.9163C13.4289 20.9999 13.0004 20.9999 12.1435 20.9999H8.42616H5.11858C4.29132 20.9999 3.87768 20.9999 3.54239 20.922C2.35308 20.6454 1.45006 19.6756 1.25892 18.4696C1.20503 18.1296 1.2345 17.717 1.29344 16.8918V16.8918Z" stroke="white" stroke-width="1.4"/>
<path d="M4.52942 5C4.52942 2.79086 6.32028 1 8.52942 1H8.76471C10.9739 1 12.7647 2.79086 12.7647 5V5.70588C12.7647 7.65512 11.1845 9.23529 9.2353 9.23529V9.23529H8.05883V9.23529C6.10959 9.23529 4.52942 7.65512 4.52942 5.70588V5Z" stroke="white" stroke-width="1.4"/>
</svg>
